<svg xmlns="http://www.w3.org/2000/svg" xmlns:xlink="http://www.w3.org/1999/xlink" viewBox="0 0 215.64 96.36"><defs><radialGradient id="radial-gradient" cx="218.14" cy="902.92" r="32.79" gradientTransform="matrix(.51 -.44 -.37 -.28 278.23 423.55)" gradientUnits="userSpaceOnUse"><stop offset=".29" stop-color="#292929"/><stop offset=".31" stop-color="#313131"/><stop offset=".42" stop-color="#6f6f6f"/><stop offset=".54" stop-color="#a2a2a2"/><stop offset=".64" stop-color="#cbcbcb"/><stop offset=".74" stop-color="#e7e7e7"/><stop offset=".82" stop-color="#f9f9f9"/><stop offset=".88" stop-color="#fff"/></radialGradient><radialGradient id="radial-gradient-2" cx="251.3" cy="967.88" r="30.56" gradientTransform="matrix(.59 -.4 -.37 -.35 249.92 464.15)" xlink:href="#radial-gradient"/><radialGradient id="radial-gradient-3" cx="259.57" cy="1011.96" r="32.79" gradientTransform="matrix(.46 -.54 -.45 -.24 362.47 433.14)" xlink:href="#radial-gradient"/><radialGradient id="radial-gradient-4" cx="116.77" cy="475.33" r="31.24" gradientTransform="matrix(.25 .67 .44 -.26 -157.37 95.78)" xlink:href="#radial-gradient"/><radialGradient id="radial-gradient-5" cx="336.49" cy="857.49" r="2.02" gradientTransform="matrix(.54 -.47 -.41 -.31 299.58 454.29)" xlink:href="#radial-gradient"/><radialGradient id="radial-gradient-6" cx="333.49" cy="853.7" r="1.88" gradientTransform="matrix(.59 -.4 -.37 -.35 249.92 464.15)" xlink:href="#radial-gradient"/><radialGradient id="radial-gradient-7" cx="349.09" cy="871.89" r="2.02" gradientTransform="matrix(.46 -.54 -.45 -.24 362.47 433.14)" xlink:href="#radial-gradient"/><radialGradient id="radial-gradient-8" cx="138.31" cy="593.87" r="1.92" gradientTransform="matrix(.25 .67 .44 -.26 -157.37 95.78)" xlink:href="#radial-gradient"/><style>.cls-2{fill:#231f55}.cls-3{fill:#071d3c}.cls-6{fill:#ec2026}</style></defs><g style="isolation:isolate"><g id="Layer_1" data-name="Layer 1"><path class="cls-2" d="M104.43 61.37a2.74 2.74 0 0 1 1.39-.31c1.1 0 1.66.53 1.66 1.59V65h-.37v-.63l-.06.08a.18.18 0 0 0-.08.09s-.07.08-.14.11-.11.08-.15.13a1.13 1.13 0 0 1-.21.12l-.24.11a1 1 0 0 0-.28.07 1.72 1.72 0 0 1-.32 0 1.68 1.68 0 0 1-1.13-.37 1.17 1.17 0 0 1-.41-.92 1 1 0 0 1 .46-.87 2 2 0 0 1 1.21-.35h1.35a1 1 0 0 0-.7-1.11 1.73 1.73 0 0 0-.48-.07 2.63 2.63 0 0 0-.49 0 2.45 2.45 0 0 0-.37.07l-.24.09-.16.08-.1.05Zm2.68 2v-.43h-1a5.65 5.65 0 0 0-.88 0 .94.94 0 0 0-.56.28.72.72 0 0 0-.19.51.74.74 0 0 0 0 .33 1.3 1.3 0 0 0 .19.31 1.45 1.45 0 0 0 .35.21 1.59 1.59 0 0 0 .57.09 1.42 1.42 0 0 0 .42 0l.33-.08a2.18 2.18 0 0 1 .25-.14.5.5 0 0 0 .18-.17.8.8 0 0 0 .15-.17c0-.06.06-.11.07-.16s0-.1 0-.15a1 1 0 0 1 0-.12ZM111.41 61.11h1.37v.32h-1.37v2.49a.75.75 0 0 0 0 .19.67.67 0 0 1 .06.17c0 .06.07.12.12.15a1 1 0 0 0 1.17.14v.34H112.61a.22.22 0 0 0-.11 0h-.13a.39.39 0 0 1-.16 0h-.36s-.11 0-.17-.06l-.19-.09a1.79 1.79 0 0 1-.18-.14 1.31 1.31 0 0 1-.25-.44c0-.24-.08-.36-.09-.47v-2.28h-.57v-.32h.6v-1.26h.38ZM113.51 61.37a2.8 2.8 0 0 1 1.4-.31q1.65 0 1.65 1.59V65h-.38v-.63a.21.21 0 0 1-.06.08s0 0-.08.09l-.12.11s-.11.08-.17.13a.88.88 0 0 1-.21.12l-.24.11a1.08 1.08 0 0 0-.27.07 1.77 1.77 0 0 1-.32 0 1.7 1.7 0 0 1-1.13-.37 1.2 1.2 0 0 1-.41-.92 1 1 0 0 1 .47-.87 1.92 1.92 0 0 1 1.2-.35h1.35a1 1 0 0 0-.7-1.11 1.62 1.62 0 0 0-.48-.07 2.58 2.58 0 0 0-.49 0 2.45 2.45 0 0 0-.37.07l-.24.09-.17.08s-.06.05-.07.05Zm2.68 2v-.43h-1a5.38 5.38 0 0 0-.86 0 1 1 0 0 0-.58.28l-.12.2a1.13 1.13 0 0 0-.06.31.93.93 0 0 0 0 .33 2.48 2.48 0 0 0 .18.31 1.8 1.8 0 0 0 .36.21 1.61 1.61 0 0 0 .58.09 1.32 1.32 0 0 0 .41 0l.33-.08.25-.14a.85.85 0 0 0 .2-.17c0-.06.08-.1.12-.17a.79.79 0 0 0 .08-.16.33.33 0 0 0 0-.15.84.84 0 0 1 0-.12 1.5 1.5 0 0 0 .11-.33ZM121.49 64.35v.45a1.14 1.14 0 0 1-.18.47 2.12 2.12 0 0 1-.4.45 2 2 0 0 1-.6.34 1.75 1.75 0 0 1-.72.14 3.36 3.36 0 0 1-1.49-.38v-.48a1.94 1.94 0 0 0 1.47.52 1.7 1.7 0 0 0 .57-.1 1.59 1.59 0 0 0 .39-.18.71.71 0 0 0 .28-.29.77.77 0 0 0 .18-.28.87.87 0 0 0 .1-.31.62.62 0 0 0 0-.24.55.55 0 0 0 0-.12v-.58a3.5 3.5 0 0 1-.24.3c-.1.1-.21.19-.33.29a1.86 1.86 0 0 1-.47.22 2 2 0 0 1-.54.08 2.34 2.34 0 0 1-.67-.11 3.17 3.17 0 0 1-.62-.34 1.22 1.22 0 0 1-.42-.57 1.61 1.61 0 0 1-.17-.82 1.85 1.85 0 0 1 .17-.82 1.71 1.71 0 0 1 .64-.7 1.74 1.74 0 0 1 .94-.29 2.63 2.63 0 0 1 .58.07 3.68 3.68 0 0 1 .41.15 3.39 3.39 0 0 1 .34.23l.21.22a1.56 1.56 0 0 1 .13.19v-.8h.39Zm-2 0a1.76 1.76 0 0 0 1.1-.41 1.4 1.4 0 0 0 .5-1.06 1.39 1.39 0 0 0-.5-1.06 1.6 1.6 0 0 0-1.1-.45 1.49 1.49 0 0 0-1.09.44 1.39 1.39 0 0 0-.45 1 1.48 1.48 0 0 0 .45 1.07 1.53 1.53 0 0 0 1.12.44ZM123 63.22V63.79a1.58 1.58 0 0 1 0 .21.9.9 0 0 0 0 .22 1.86 1.86 0 0 0 .14.2c.23.27.64.31 1.16.12v.33h-.3a.22.22 0 0 1-.15 0h-.16a.44.44 0 0 0-.19 0 1.27 1.27 0 0 1-.18-.06l-.18-.09-.17-.15a.54.54 0 0 1-.19-.23 1.82 1.82 0 0 1-.11-.3v-.29a.72.72 0 0 1 0-.28 1.06 1.06 0 0 0 0-.26v-3.79h.33ZM125.27 59.91h.52v.64h-.52Zm.45 1.91v-.71h-.37V65h.37ZM127.26 65h-.38v-3.89h.38v.65a1.5 1.5 0 0 1 1.32-.76 1.59 1.59 0 0 1 1.24.45 1.64 1.64 0 0 1 .43 1.23V65h-.38v-2.17c0-1-.44-1.46-1.34-1.47a1.32 1.32 0 0 0-1.27 1ZM131.76 63.18a2.24 2.24 0 0 0 .11.5 1.64 1.64 0 0 0 .35.52 1.16 1.16 0 0 0 .52.37 1.73 1.73 0 0 0 .63.13 1.64 1.64 0 0 0 .65-.13 1.71 1.71 0 0 0 .35-.21v.42a.45.45 0 0 1-.2.09 1.83 1.83 0 0 1-.82.18 1.94 1.94 0 0 1-.8-.17 2.06 2.06 0 0 1-1.06-1.06 2.27 2.27 0 0 1-.16-.79 2 2 0 0 1 .59-1.41 2.08 2.08 0 0 1 .64-.44 2 2 0 0 1 .81-.17 1.45 1.45 0 0 1 .82.28 1.53 1.53 0 0 1 .41.39 1.55 1.55 0 0 1 .31.63 2.68 2.68 0 0 1 .12.88Zm1.59-1.82a1.69 1.69 0 0 0-.63.13 1.29 1.29 0 0 0-.51.35 1.94 1.94 0 0 0-.34.52 2.29 2.29 0 0 0-.11.49h2.87a1.78 1.78 0 0 0-.11-.51 3.54 3.54 0 0 0-.2-.43 2.66 2.66 0 0 0-.23-.28.79.79 0 0 0-.25-.15c-.12 0-.2-.07-.25-.1h-.24ZM142 64.35v.45a1 1 0 0 1-.19.47 1.64 1.64 0 0 1-.39.45 1.81 1.81 0 0 1-.6.34 1.7 1.7 0 0 1-.71.14 3.51 3.51 0 0 1-1.51-.38v-.48a1.94 1.94 0 0 0 1.47.52 1.46 1.46 0 0 0 .55-.1 1.41 1.41 0 0 0 .42-.18.78.78 0 0 0 .28-.29.93.93 0 0 0 .18-.28 1.12 1.12 0 0 0 .11-.31 1 1 0 0 1 0-.24v-.7a2.25 2.25 0 0 1-.24.3c-.1.1-.21.19-.33.29a2.34 2.34 0 0 1-.48.22 1.85 1.85 0 0 1-.54.08 2.22 2.22 0 0 1-.65-.11 3.24 3.24 0 0 1-.63-.34 1.52 1.52 0 0 1-.45-.57 2.18 2.18 0 0 1-.16-.82 1.64 1.64 0 0 1 .21-.82 1.53 1.53 0 0 1 .62-.7 1.75 1.75 0 0 1 1-.29 2.59 2.59 0 0 1 .55.07 2.43 2.43 0 0 1 .42.15 1.09 1.09 0 0 1 .31.23 1.45 1.45 0 0 1 .22.22l.15.19v-.8h.39Zm-2 0a1.87 1.87 0 0 0 1.14-.41 1.42 1.42 0 0 0 .48-1.06 1.4 1.4 0 0 0-.48-1.06 1.7 1.7 0 0 0-1.14-.45 1.51 1.51 0 0 0-1.07.44 1.37 1.37 0 0 0-.43 1 1.46 1.46 0 0 0 .43 1.07 1.55 1.55 0 0 0 1.07.44ZM145.12 65.05a2 2 0 0 1-.82-.17 2.61 2.61 0 0 1-.63-.43 2 2 0 0 1-.57-1.45 2.07 2.07 0 0 1 .15-.77 2.52 2.52 0 0 1 .42-.64 2.65 2.65 0 0 1 .63-.44 2.25 2.25 0 0 1 .84-.17 2 2 0 0 1 .8.17 2 2 0 0 1 1.06 1.1 1.84 1.84 0 0 1 .13.76 2 2 0 0 1-.13.77 2 2 0 0 1-1.06 1.09 2.08 2.08 0 0 1-.82.18Zm0-.35a2 2 0 0 0 .66-.13 1.92 1.92 0 0 0 .48-.37 1.06 1.06 0 0 0 .33-.52 1.41 1.41 0 0 0 .14-.65 1.57 1.57 0 0 0-.14-.66 2 2 0 0 0-.34-.54 1.56 1.56 0 0 0-.52-.34 1.86 1.86 0 0 0-.63-.12 1.75 1.75 0 0 0-.65.13 1.59 1.59 0 0 0-.52.35 3.89 3.89 0 0 0-.34.52 2.32 2.32 0 0 0-.1.65 1.56 1.56 0 0 0 .13.66 1.45 1.45 0 0 0 .33.52 1.28 1.28 0 0 0 .52.37 1.67 1.67 0 0 0 .67.13ZM148.62 63.18a2.34 2.34 0 0 0 .14.5 1.1 1.1 0 0 0 .35.52 1.08 1.08 0 0 0 .51.37 1.63 1.63 0 0 0 .61.13 1.6 1.6 0 0 0 .65-.13 2.06 2.06 0 0 0 .39-.21v.42a1 1 0 0 1-.21.09 1.94 1.94 0 0 1-.83.18 2 2 0 0 1-.81-.17 2 2 0 0 1-.62-.43 2.11 2.11 0 0 1-.44-.63 2.27 2.27 0 0 1-.16-.79 2.3 2.3 0 0 1 .16-.77 2.62 2.62 0 0 1 .44-.64 2.08 2.08 0 0 1 .64-.44 1.86 1.86 0 0 1 .79-.17 1.24 1.24 0 0 1 .4.07 2.18 2.18 0 0 1 .45.21 2.92 2.92 0 0 1 .4.39 1.55 1.55 0 0 1 .32.63 3.36 3.36 0 0 1 .11.88Zm1.61-1.82a1.74 1.74 0 0 0-.64.13 1.7 1.7 0 0 0-.52.35 1.84 1.84 0 0 0-.31.52 2.43 2.43 0 0 0-.14.49h2.89a3.89 3.89 0 0 0-.1-.51c-.07-.17-.14-.31-.2-.43l-.25-.28a.74.74 0 0 0-.26-.15l-.24-.1h-.23ZM155.19 61.76l-.15-.09a1.55 1.55 0 0 0-.37-.16 3 3 0 0 0-.53-.14 1.2 1.2 0 0 0-.52.05.79.79 0 0 0-.47.33.54.54 0 0 0-.06.5.74.74 0 0 0 .41.31l.64.23c.23.08.45.14.67.23a1.22 1.22 0 0 1 .5.36.82.82 0 0 1 .16.6 1 1 0 0 1-.34.72 1.16 1.16 0 0 1-.67.31 3.6 3.6 0 0 1-.8 0c-.26-.06-.5-.12-.71-.19a1.11 1.11 0 0 1-.42-.28l.18-.32.21.13a4.42 4.42 0 0 0 .5.21 1.8 1.8 0 0 0 .69.15 1.08 1.08 0 0 0 .75-.23.78.78 0 0 0 .22-.57.55.55 0 0 0-.21-.4 2.29 2.29 0 0 0-.47-.24 6 6 0 0 0-.7-.19 1.48 1.48 0 0 1-.85-.47.77.77 0 0 1-.14-.78 1.05 1.05 0 0 1 .57-.64 1.41 1.41 0 0 1 .9-.14 4.43 4.43 0 0 1 .58.14l.46.2.16.09ZM159 61.79a.87.87 0 0 1 .2-.23.94.94 0 0 1 .27-.25 1.41 1.41 0 0 1 .44-.23 1.89 1.89 0 0 1 .56-.08 2.14 2.14 0 0 1 .72.14 1.33 1.33 0 0 1 .48.42 2.86 2.86 0 0 1 .27.52 2.35 2.35 0 0 1 .07.6V65h-.38v-2.3a1.13 1.13 0 0 1 0-.19 1.36 1.36 0 0 1 0-.27c0-.09-.07-.18-.12-.31a2.84 2.84 0 0 0-.23-.25.83.83 0 0 0-.36-.2 1.22 1.22 0 0 0-.49-.09 1.49 1.49 0 0 0-1.37.94V65h-.38v-5.58h.32ZM163.48 63.18a3 3 0 0 0 .12.5 1.49 1.49 0 0 0 .35.52 1.28 1.28 0 0 0 .5.37 1.8 1.8 0 0 0 .66.13 1.74 1.74 0 0 0 .64-.13c.12 0 .23-.14.37-.21v.42a.64.64 0 0 1-.22.09 1.92 1.92 0 0 1-.82.18 2.06 2.06 0 0 1-.81-.17 2.32 2.32 0 0 1-.64-.43 1.6 1.6 0 0 1-.41-.63 2.06 2.06 0 0 1-.15-.79 2.07 2.07 0 0 1 .15-.77 1.88 1.88 0 0 1 .41-.64 2.11 2.11 0 0 1 .67-.44 1.92 1.92 0 0 1 .81-.17 1.33 1.33 0 0 1 .38.07 1.82 1.82 0 0 1 .42.21 1.66 1.66 0 0 1 .44.39 3.69 3.69 0 0 1 .31.63 3 3 0 0 1 .09.88Zm1.6-1.82a1.55 1.55 0 0 0-1.15.48 1.7 1.7 0 0 0-.33.52 3.17 3.17 0 0 0-.12.49h2.88a2.42 2.42 0 0 0-.12-.51 1.13 1.13 0 0 0-.19-.43 2.59 2.59 0 0 0-.24-.28.84.84 0 0 0-.26-.15l-.22-.1h-.25ZM169.88 61.45h-.25a.85.85 0 0 0-.36.11 1.46 1.46 0 0 0-.42.25 2.73 2.73 0 0 0-.39.48 3.57 3.57 0 0 0-.25.78V65h-.38v-3.89h.38v1a2 2 0 0 1 .79-.88 1.77 1.77 0 0 1 .88-.22ZM170 63.18a1.33 1.33 0 0 0 .13.5 1.12 1.12 0 0 0 .32.52 1.42 1.42 0 0 0 .52.37 1.65 1.65 0 0 0 .63.13 1.82 1.82 0 0 0 .67-.13 1.94 1.94 0 0 0 .34-.21v.42a.6.6 0 0 1-.21.09 1.79 1.79 0 0 1-.81.18 2 2 0 0 1-.81-.17 2.53 2.53 0 0 1-.65-.43 2.44 2.44 0 0 1-.41-.63 2.52 2.52 0 0 1-.14-.79 1.9 1.9 0 0 1 .57-1.41 2.4 2.4 0 0 1 .65-.44 2 2 0 0 1 .8-.17 1.75 1.75 0 0 1 .42.07 4 4 0 0 1 .43.21c.14.1.26.25.42.39a1.86 1.86 0 0 1 .27.63 3 3 0 0 1 .12.88Zm1.59-1.82a1.6 1.6 0 0 0-1.16.48 1.6 1.6 0 0 0-.3.52 1.33 1.33 0 0 0-.13.49h2.87a1.91 1.91 0 0 0-.12-.51.93.93 0 0 0-.22-.43 1.35 1.35 0 0 0-.2-.28 1.16 1.16 0 0 0-.26-.15l-.24-.1h-.24Z" transform="translate(-2.42 -1.69)"/><path class="cls-3" d="m46.83 88.22-38-59.09-6.41-9.86h13.91L92 19.16h11.36L97.75 28 60.07 87.2 53.12 98ZM28.52 32l25.4 39.4 25.13-39.48Z" transform="translate(-2.42 -1.69)"/><path d="M74.73 56.94c-8.1-6.07-24.48-2.76-36.37 7.46S23.43 87.92 31.54 94c8.29 6.2 24.6 2.92 36.53-7.34S83 63.13 74.73 56.94Z" transform="translate(-2.42 -1.69)" style="fill:url(#radial-gradient);opacity:.61;mix-blend-mode:multiply"/><path d="M67.84 11c-7.42-7-24.06-5.75-37 3S13.56 35.53 21 42.58c7.6 7.18 24.18 5.91 37.11-2.83S75.44 18.16 67.84 11Z" transform="translate(-2.42 -1.69)" style="fill:url(#radial-gradient-2);opacity:.61;mix-blend-mode:multiply"/><path class="cls-6" d="m97.24 70.64-38-59.09-6.41-9.86L46 12.57 8.28 71.82l-5.64 8.82 11.29-.07 75.71-.15 14 .08ZM52.12 28.4l25.39 39.41-50.51.04Z" transform="translate(-2.42 -1.69)"/><path d="M49.93 26.66c-9.72-5.22-26.56.74-37.38 13.34S.89 67.14 10.63 72.36c9.94 5.33 26.73-.59 37.58-13.23S59.87 32 49.93 26.66Z" transform="translate(-2.42 -1.69)" style="fill:url(#radial-gradient-3);opacity:.61;mix-blend-mode:multiply"/><path class="cls-3" d="M31.45 66.16 7.12 28.61l18.98 1.67 23.11 35.87-17.76.01z"/><path d="M88.15 77.64c9-5.35 12.07-21.77 6.62-36.52s-17.28-22.38-26.33-17C59.2 29.57 56.16 46 61.63 60.74s17.29 22.38 26.52 16.9Z" transform="translate(-2.42 -1.69)" style="fill:url(#radial-gradient-4);opacity:.61;mix-blend-mode:multiply"/><path class="cls-3" d="M88 37.77 71.14 64.24l-11.53-7.29L81.12 23.3 88 37.77z"/><path class="cls-3" d="m134.65 36.25-2.34-3.63-.4-.61h6.22l-.35.54-2.32 3.65-.43.67Zm-1.13-3.46 1.56 2.43 1.55-2.43Z" transform="translate(-2.42 -1.69)"/><path d="M136.45 34.41a2.14 2.14 0 0 0-2.4.46c-.78.67-1 1.55-.43 2a2.13 2.13 0 0 0 2.41-.46c.79-.71.97-1.59.42-2Z" transform="translate(-2.42 -1.69)" style="fill:url(#radial-gradient-5);opacity:.61;mix-blend-mode:multiply"/><path d="M135.94 31.5a2 2 0 0 0-2.27.18c-.8.54-1.07 1.33-.61 1.76a2 2 0 0 0 2.28-.17c.8-.54 1.07-1.33.6-1.77Z" transform="translate(-2.42 -1.69)" style="fill:url(#radial-gradient-6);opacity:.61;mix-blend-mode:multiply"/><path class="cls-6" d="m137.75 35.17-2.34-3.64-.39-.6-.43.67-2.32 3.64-.34.55h6.21Zm-2.75-2.6 1.54 2.43h-3.11Z" transform="translate(-2.42 -1.69)"/><path d="M134.84 32.46a2.13 2.13 0 0 0-2.3.83c-.67.77-.72 1.67-.12 2a2.12 2.12 0 0 0 2.31-.82c.67-.78.72-1.68.11-2.01Z" transform="translate(-2.42 -1.69)" style="fill:url(#radial-gradient-7);opacity:.61;mix-blend-mode:multiply"/><path class="cls-3" d="m131.43 33.31-1.5-2.31 1.17.1 1.42 2.21h-1.09z"/><path d="M137.19 35.6a1.92 1.92 0 0 0 .41-2.25c-.34-.91-1.06-1.37-1.62-1a1.91 1.91 0 0 0-.42 2.25c.34.87 1.06 1.34 1.63 1Z" transform="translate(-2.42 -1.69)" style="fill:url(#radial-gradient-8);opacity:.61;mix-blend-mode:multiply"/><path class="cls-3" d="m134.91 31.57-1.04 1.63-.71-.46 1.32-2.07.43.9z"/><path class="cls-6" d="M106.37 58.25v-21h-7.74V35.4a2.54 2.54 0 0 1 .8-1.89 2.66 2.66 0 0 1 1.93-.79h18v4.53h-7.66v21ZM120.4 58.25v-9.57a12 12 0 0 1 .87-4.86 8.05 8.05 0 0 1 2.39-3.15A9.2 9.2 0 0 1 127 39a15.15 15.15 0 0 1 4-.52h.76v5.26H130a4.53 4.53 0 0 0-3.27 1 4.45 4.45 0 0 0-1.06 3.27v10.24ZM132.76 38.52h2.73a2.54 2.54 0 0 1 1.82.73 2.43 2.43 0 0 1 .75 1.79v17.21h-5.3Z" transform="translate(-2.42 -1.69)"/><path class="cls-6" d="M151.18 57.44a9.25 9.25 0 0 1-3.37 1 29.29 29.29 0 0 1-3.15.19 8.12 8.12 0 0 1-4.78-1.45c-1.36-1-2-2.56-2-4.79s.62-3.56 1.85-4.45a10.78 10.78 0 0 1 4.74-1.78 4.75 4.75 0 0 0 .91-.11 11.26 11.26 0 0 1 1.22-.19c2.22-.29 3.33-.94 3.33-1.93a1.42 1.42 0 0 0-1.17-1.45 8.12 8.12 0 0 0-2.16-.33 5.61 5.61 0 0 0-1.9.3 2 2 0 0 0-1.21 1.11h-5.08a5.73 5.73 0 0 1 2.12-3.79 8.94 8.94 0 0 1 5.84-1.7q4.24 0 6.37 1.41a4.74 4.74 0 0 1 2.2 4.15v6.76A8.42 8.42 0 0 1 153.8 55a6.65 6.65 0 0 1-2.62 2.44ZM150 48.31a13.87 13.87 0 0 1-3 1l-1.74.38a4.57 4.57 0 0 0-2 1 2.94 2.94 0 0 0-.53 1.63 2.37 2.37 0 0 0 .68 1.79 2.93 2.93 0 0 0 2 .59 4.59 4.59 0 0 0 3.34-1.19 4.39 4.39 0 0 0 1.25-3.35ZM173.25 58.25h-2.66a2.54 2.54 0 0 1-1.85-.7 2.44 2.44 0 0 1-.72-1.82V45.64a3 3 0 0 0-1.1-2.6 4.09 4.09 0 0 0-2.47-.82A3.87 3.87 0 0 0 162 43a3.07 3.07 0 0 0-1.06 2.6v12.65h-5.31V46.68c0-3.37.89-5.61 2.69-6.76a12 12 0 0 1 6-1.85 11.66 11.66 0 0 1 6.14 1.7c1.87 1.14 2.81 3.45 2.81 6.91ZM187.43 57.07V55.8a5.77 5.77 0 0 1-3.68 2.6 7.59 7.59 0 0 1-4.58-.37 8.34 8.34 0 0 1-3.91-3.3 11.12 11.12 0 0 1-1.63-6.35 12.07 12.07 0 0 1 2.16-7.46q2.16-2.85 6.94-2.85a12.54 12.54 0 0 1 6.75 1.93q3.11 1.94 3.11 7.12v10.47q0 5.19-3.11 7.08a12.78 12.78 0 0 1-6.75 1.9q-7 0-8.65-6.39h5.54a3.88 3.88 0 0 0 1.86 1.6 4 4 0 0 0 2.5.3 4.17 4.17 0 0 0 2.27-1.45 5.88 5.88 0 0 0 1.18-3.56Zm-8.64-8.54c0 3.42 1 5.31 3 5.68s3.52-.08 4.48-1.38a5.44 5.44 0 0 0 1-2.56 10.8 10.8 0 0 0 0-3.45 6.84 6.84 0 0 0-1.26-3 3.34 3.34 0 0 0-2.88-1.33 3.52 3.52 0 0 0-3.49 1.85 9.59 9.59 0 0 0-.85 4.19ZM193.72 32.72h2.73a2.61 2.61 0 0 1 1.83.71 2.29 2.29 0 0 1 .75 1.74v23.08h-5.31ZM214 52.17h3.79a8.13 8.13 0 0 1-3.18 4.75 9.81 9.81 0 0 1-5.92 1.71 8.51 8.51 0 0 1-6.74-2.75q-2.43-2.67-2.43-7.65a10.86 10.86 0 0 1 2.35-7.42 8.58 8.58 0 0 1 6.75-2.74 9.2 9.2 0 0 1 7 2.67c1.62 1.83 2.42 4.38 2.42 7.64v.82a1.28 1.28 0 0 1-.07.52h-13.1a5 5 0 0 0 1.13 3.41 3.61 3.61 0 0 0 3 1.19 4.29 4.29 0 0 0 2.2-.52 1 1 0 0 0 .42-.26l.42-.41c0-.14.24-.34.57-.59a2.27 2.27 0 0 1 1.39-.37Zm-9.1-5.79h7.73a4.73 4.73 0 0 0-1.06-3 3.68 3.68 0 0 0-2.81-1 3.73 3.73 0 0 0-2.72 1 4.21 4.21 0 0 0-1.17 3Z" transform="translate(-2.42 -1.69)"/></g></g></svg>