<svg xmlns="http://www.w3.org/2000/svg" xmlns:xlink="http://www.w3.org/1999/xlink" viewBox="0 0 216.59 100"><defs><style>.cls-1{isolation:isolate;}.cls-2{fill:#fff;}.cls-3,.cls-4,.cls-6,.cls-7{opacity:0.61;mix-blend-mode:multiply;}.cls-3{fill:url(#radial-gradient);}.cls-4{fill:url(#radial-gradient-2);}.cls-5{fill:#ef4323;}.cls-6{fill:url(#radial-gradient-3);}.cls-7{fill:url(#radial-gradient-4);}</style><radialGradient id="radial-gradient" cx="241.99" cy="889.73" r="18.81" gradientTransform="matrix(0.69, -0.63, -0.48, -0.36, 317.15, 550.17)" gradientUnits="userSpaceOnUse"><stop offset="0.29" stop-color="#292929"/><stop offset="0.31" stop-color="#313131"/><stop offset="0.42" stop-color="#6f6f6f"/><stop offset="0.54" stop-color="#a2a2a2"/><stop offset="0.64" stop-color="#cbcbcb"/><stop offset="0.74" stop-color="#e7e7e7"/><stop offset="0.82" stop-color="#f9f9f9"/><stop offset="0.88" stop-color="#fff"/></radialGradient><radialGradient id="radial-gradient-2" cx="257.98" cy="949.95" r="20.57" gradientTransform="matrix(0.68, -0.47, -0.44, -0.43, 284.23, 555.67)" xlink:href="#radial-gradient"/><radialGradient id="radial-gradient-3" cx="259.69" cy="1008.49" r="23.85" gradientTransform="matrix(0.46, -0.55, -0.44, -0.24, 356.76, 437.42)" xlink:href="#radial-gradient"/><radialGradient id="radial-gradient-4" cx="133.27" cy="450.1" r="20.38" gradientTransform="matrix(0.12, 0.93, 0.42, -0.14, -128.84, -5.75)" xlink:href="#radial-gradient"/></defs><title>footer_logo</title><g class="cls-1"><g id="Layer_1" data-name="Layer 1"><path class="cls-2" d="M105.86,64a2.72,2.72,0,0,1,1.41-.33,1.47,1.47,0,0,1,1.67,1.66v2.38h-.37v-.66l0,0s0,0-.06.09a.15.15,0,0,0-.08.09c-.05,0-.07.09-.15.12l-.15.13a1.48,1.48,0,0,1-.21.13l-.24.11a1.11,1.11,0,0,0-.29.07,1.62,1.62,0,0,1-.32,0,1.66,1.66,0,0,1-1.13-.38,1.25,1.25,0,0,1-.42-1,1,1,0,0,1,.47-.91,1.91,1.91,0,0,1,1.21-.36h1.37a1.05,1.05,0,0,0-.71-1.15,1.73,1.73,0,0,0-.48-.07,2.53,2.53,0,0,0-.49,0,1.62,1.62,0,0,0-.38.07,1.08,1.08,0,0,0-.24.1l-.17.08c-.06,0-.07,0-.09,0Zm2.71,2v-.45h-1a5.78,5.78,0,0,0-.89,0,1,1,0,0,0-.57.3,1.06,1.06,0,0,0-.12.2,1.32,1.32,0,0,0-.07.32.84.84,0,0,0,0,.35,1.09,1.09,0,0,0,.18.31,1.24,1.24,0,0,0,.36.23,1.89,1.89,0,0,0,.57.09,1.45,1.45,0,0,0,.43,0l.33-.09c.1,0,.18-.11.26-.14a.74.74,0,0,0,.18-.17l.15-.18c0-.06,0-.12.07-.17s0-.1,0-.15a.69.69,0,0,1,0-.13Z" transform="translate(-1.61)"/><path class="cls-2" d="M112.9,63.75h1.39v.32H112.9v2.59a1.52,1.52,0,0,0,0,.19A.39.39,0,0,1,113,67c.05.06.07.12.13.16.25.29.65.33,1.17.14l0,.36h-.07s-.06,0-.08,0a.22.22,0,0,0-.11,0h-.13a.39.39,0,0,1-.16,0h-.18l-.18,0c-.06,0-.11,0-.18-.06l-.18-.09-.19-.15a1.36,1.36,0,0,1-.25-.45c0-.25-.08-.38-.09-.49V64.07H112v-.32h.57V62.44h.38Z" transform="translate(-1.61)"/><path class="cls-2" d="M115,64a2.75,2.75,0,0,1,1.41-.33,1.46,1.46,0,0,1,1.66,1.66v2.38h-.38v-.66l0,0s0,0-.06.09,0,0-.09.09a.68.68,0,0,1-.12.12l-.17.13-.21.13-.24.11a1.14,1.14,0,0,0-.28.07,1.72,1.72,0,0,1-.32,0,1.68,1.68,0,0,1-1.14-.38,1.29,1.29,0,0,1-.42-1,1,1,0,0,1,.48-.91,1.9,1.9,0,0,1,1.21-.36h1.37A1.09,1.09,0,0,0,117,64.1a1.68,1.68,0,0,0-.48-.07,2.64,2.64,0,0,0-.5,0,1.85,1.85,0,0,0-.38.07,1.33,1.33,0,0,0-.24.1l-.17.08s-.06,0-.07,0Zm2.7,2v-.45h-1a5.73,5.73,0,0,0-.88,0,1,1,0,0,0-.57.3l-.13.2a2,2,0,0,0-.06.32,1,1,0,0,0,0,.35,1.92,1.92,0,0,0,.18.31,1.87,1.87,0,0,0,.36.23,2,2,0,0,0,.59.09,1.28,1.28,0,0,0,.41,0l.33-.09c.1,0,.19-.11.26-.14l.2-.17c0-.07.08-.11.12-.18a1,1,0,0,0,.09-.17.31.31,0,0,0,0-.15.65.65,0,0,0,0-.13A1.57,1.57,0,0,0,117.72,66.07Z" transform="translate(-1.61)"/><path class="cls-2" d="M123.07,67.11h0c0,.1,0,.25,0,.46a1.19,1.19,0,0,1-.19.49,2,2,0,0,1-.4.47,2.31,2.31,0,0,1-.6.35,1.65,1.65,0,0,1-.73.15,3.33,3.33,0,0,1-1.5-.4v-.5a1.9,1.9,0,0,0,1.48.54,1.76,1.76,0,0,0,.58-.1,1.57,1.57,0,0,0,.39-.19.89.89,0,0,0,.29-.29,1.12,1.12,0,0,0,.18-.3,1.1,1.1,0,0,0,.1-.32.91.91,0,0,0,0-.25.93.93,0,0,1,0-.13v-.6a1.5,1.5,0,0,1-.24.31,2,2,0,0,1-.33.31,1.57,1.57,0,0,1-.47.22,1.76,1.76,0,0,1-.55.09,2.29,2.29,0,0,1-.67-.11,3.31,3.31,0,0,1-.62-.36,1.32,1.32,0,0,1-.44-.59,2.18,2.18,0,0,1,0-1.71,1.67,1.67,0,0,1,.64-.71,1.73,1.73,0,0,1,1-.31,2.8,2.8,0,0,1,.59.07,3.53,3.53,0,0,1,.41.16,2.36,2.36,0,0,1,.34.24c.1.09.17.18.21.22l.14.2s0,0,0,0v-.82h.4Zm-2,0a1.72,1.72,0,0,0,1.11-.42,1.46,1.46,0,0,0,.51-1.1,1.43,1.43,0,0,0-.51-1.1,1.55,1.55,0,0,0-1.11-.47,1.47,1.47,0,0,0-1.1.46,1.46,1.46,0,0,0-.45,1.08,1.56,1.56,0,0,0,.45,1.11A1.53,1.53,0,0,0,121.08,67.07Z" transform="translate(-1.61)"/><path class="cls-2" d="M124.61,65.94V66s0,.09,0,.23a1.29,1.29,0,0,0,0,.29s0,.12,0,.21a1.11,1.11,0,0,0,.05.24c0,.06.08.13.14.2.24.28.65.32,1.18.13l0,.34-.15,0-.12,0h-.13s-.1,0-.15,0h-.17a.4.4,0,0,0-.19,0,1.89,1.89,0,0,1-.18-.06l-.18-.1-.17-.15a.51.51,0,0,1-.19-.24c0-.11-.08-.2-.12-.31a2.72,2.72,0,0,0,0-.3,1,1,0,0,1,0-.29,1.14,1.14,0,0,0,0-.27V62h.41Z" transform="translate(-1.61)"/><path class="cls-2" d="M126.88,62.5h.52v.66h-.52Zm.45,2v-.73H127v4h.37Z" transform="translate(-1.61)"/><path class="cls-2" d="M128.88,67.73h-.38v-4h.38v.67a1.52,1.52,0,0,1,1.34-.79,1.6,1.6,0,0,1,1.25.47,1.7,1.7,0,0,1,.43,1.27v2.36h-.38v-2.2c0-1-.45-1.52-1.36-1.53a1.35,1.35,0,0,0-1.28,1Z" transform="translate(-1.61)"/><path class="cls-2" d="M133.43,65.89a3,3,0,0,0,.1.52,1.6,1.6,0,0,0,.36.54,1.1,1.1,0,0,0,.52.38,1.61,1.61,0,0,0,.64.14,1.48,1.48,0,0,0,.65-.14,1.42,1.42,0,0,0,.36-.21v.44a.64.64,0,0,1-.21.09,1.84,1.84,0,0,1-.83.18,2,2,0,0,1-.8-.17,1.85,1.85,0,0,1-.64-.45,2.28,2.28,0,0,1-.43-.66,2.38,2.38,0,0,1-.16-.81h0a2.48,2.48,0,0,1,.16-.8,2.58,2.58,0,0,1,.43-.66,2.16,2.16,0,0,1,.65-.47,2.08,2.08,0,0,1,.82-.17,1.6,1.6,0,0,1,.41.07,2.08,2.08,0,0,1,.41.22,1.79,1.79,0,0,1,.42.4,1.84,1.84,0,0,1,.31.66,2.87,2.87,0,0,1,.12.91ZM135,64a1.91,1.91,0,0,0-.63.13,1.56,1.56,0,0,0-.51.37,2.08,2.08,0,0,0-.35.54,3.28,3.28,0,0,0-.1.51h2.89a2.09,2.09,0,0,0-.12-.53,2.77,2.77,0,0,0-.19-.45c-.08-.12-.18-.21-.24-.29a1,1,0,0,0-.25-.15c-.12-.06-.21-.07-.25-.1l-.19,0Z" transform="translate(-1.61)"/><path class="cls-2" d="M143.77,67.11h0c0,.1,0,.25,0,.46a1.07,1.07,0,0,1-.19.49,1.76,1.76,0,0,1-.4.47,2,2,0,0,1-.6.35,1.61,1.61,0,0,1-.72.15,3.45,3.45,0,0,1-1.52-.4v-.5a1.91,1.91,0,0,0,1.49.54,1.46,1.46,0,0,0,.55-.1,1.39,1.39,0,0,0,.42-.19.87.87,0,0,0,.28-.29,1.59,1.59,0,0,0,.19-.3,2.33,2.33,0,0,0,.11-.32,1.22,1.22,0,0,1,0-.25v-.73a1.26,1.26,0,0,1-.25.31,2.46,2.46,0,0,1-.33.31,1.91,1.91,0,0,1-.48.22,1.63,1.63,0,0,1-.55.09,2.22,2.22,0,0,1-.65-.11,3.44,3.44,0,0,1-.64-.36,1.73,1.73,0,0,1-.46-.59,2.58,2.58,0,0,1-.16-.86,1.91,1.91,0,0,1,.21-.85,1.55,1.55,0,0,1,.64-.71,1.69,1.69,0,0,1,1-.31,2.12,2.12,0,0,1,1,.23,1.12,1.12,0,0,1,.32.24,2.19,2.19,0,0,1,.22.22,1.15,1.15,0,0,0,.15.2l0,0v-.82h.39Zm-2,0a1.82,1.82,0,0,0,1.14-.42,1.47,1.47,0,0,0,.48-1.1,1.44,1.44,0,0,0-.48-1.1,1.63,1.63,0,0,0-1.14-.47,1.52,1.52,0,0,0-1.52,1.54,1.58,1.58,0,0,0,.43,1.11A1.54,1.54,0,0,0,141.76,67.07Z" transform="translate(-1.61)"/><path class="cls-2" d="M146.89,67.83a2,2,0,0,1-.82-.17,2.28,2.28,0,0,1-.63-.45,1.93,1.93,0,0,1-.43-.66,2.16,2.16,0,0,1-.15-.81h0a2.22,2.22,0,0,1,.15-.8,2.14,2.14,0,0,1,.43-.66,2.36,2.36,0,0,1,.63-.47,2.26,2.26,0,0,1,.85-.17,2.1,2.1,0,0,1,.81.17,2,2,0,0,1,.63.46,2.12,2.12,0,0,1,.44.66,2.26,2.26,0,0,1,.13.79v0a2,2,0,0,1-.57,1.48,2,2,0,0,1-.63.45A2.17,2.17,0,0,1,146.89,67.83Zm0-.36a1.82,1.82,0,0,0,.66-.14,2,2,0,0,0,.49-.38,1.2,1.2,0,0,0,.33-.54,1.64,1.64,0,0,0,.14-.67h0a1.85,1.85,0,0,0-.14-.69,2,2,0,0,0-.35-.56,1.75,1.75,0,0,0-.52-.35,1.92,1.92,0,0,0-.64-.13,2,2,0,0,0-.65.13,2.28,2.28,0,0,0-.53.37,4.09,4.09,0,0,0-.33.54,2.14,2.14,0,0,0-.11.67v0a1.65,1.65,0,0,0,.13.68,1.56,1.56,0,0,0,.34.54,1.21,1.21,0,0,0,.52.38A1.59,1.59,0,0,0,146.92,67.47Z" transform="translate(-1.61)"/><path class="cls-2" d="M150.42,65.89a3.07,3.07,0,0,0,.14.52,1.26,1.26,0,0,0,.36.54,1.08,1.08,0,0,0,.51.38,1.55,1.55,0,0,0,.62.14,1.53,1.53,0,0,0,.66-.14,1.55,1.55,0,0,0,.38-.21v.44l-.2.09a2,2,0,0,1-.84.18,2,2,0,0,1-.81-.17,1.81,1.81,0,0,1-.63-.45,2.12,2.12,0,0,1-.44-.66,2.17,2.17,0,0,1-.17-.81h0a2.25,2.25,0,0,1,.17-.8,2.38,2.38,0,0,1,.44-.66,2,2,0,0,1,.64-.47,1.91,1.91,0,0,1,.8-.17,1.24,1.24,0,0,1,.4.07,2.31,2.31,0,0,1,.45.22,3.09,3.09,0,0,1,.41.4,1.69,1.69,0,0,1,.32.66,3.58,3.58,0,0,1,.12.91ZM152.05,64a2,2,0,0,0-.65.13,2.51,2.51,0,0,0-.53.37,2.61,2.61,0,0,0-.31.54,3.55,3.55,0,0,0-.14.51h2.92a4.34,4.34,0,0,0-.1-.53c-.07-.17-.15-.33-.21-.45l-.24-.29a1,1,0,0,0-.27-.15,1.8,1.8,0,0,0-.24-.1l-.18,0Z" transform="translate(-1.61)"/><path class="cls-2" d="M157.05,64.42l-.15-.1a2,2,0,0,0-.38-.16A3.06,3.06,0,0,0,156,64a1.08,1.08,0,0,0-.52.06.86.86,0,0,0-.48.33.57.57,0,0,0-.05.53.73.73,0,0,0,.41.32l.64.23c.23.09.46.15.68.25a1.15,1.15,0,0,1,.5.37.87.87,0,0,1,.16.62,1,1,0,0,1-.34.75,1.14,1.14,0,0,1-.67.32,3.67,3.67,0,0,1-.81,0,5.7,5.7,0,0,1-.72-.2,1.11,1.11,0,0,1-.42-.28l.18-.34a1.14,1.14,0,0,0,.22.13,2.76,2.76,0,0,0,.5.23,1.72,1.72,0,0,0,.69.15,1.08,1.08,0,0,0,.76-.24.82.82,0,0,0,.22-.59.55.55,0,0,0-.21-.41,2,2,0,0,0-.48-.25,4.39,4.39,0,0,0-.7-.2,1.46,1.46,0,0,1-.85-.49.8.8,0,0,1-.15-.81,1.09,1.09,0,0,1,.58-.67,1.42,1.42,0,0,1,.91-.14c.18,0,.37.09.57.14l.47.22.16.09Z" transform="translate(-1.61)"/><path class="cls-2" d="M160.85,64.45a1,1,0,0,1,.21-.24.84.84,0,0,1,.27-.26,1.36,1.36,0,0,1,.43-.23,1.75,1.75,0,0,1,.57-.09,1.94,1.94,0,0,1,.73.15,1.35,1.35,0,0,1,.48.43,2.48,2.48,0,0,1,.27.54,2.57,2.57,0,0,1,.08.62v2.36h-.39V65.35s0-.1,0-.2a1,1,0,0,1-.05-.29c0-.09-.07-.18-.12-.32a2.85,2.85,0,0,0-.23-.26,1,1,0,0,0-.36-.21,1.31,1.31,0,0,0-.5-.09,1.5,1.5,0,0,0-1.38,1v2.77h-.38V62h.38Z" transform="translate(-1.61)"/><path class="cls-2" d="M165.41,65.89a3,3,0,0,0,.12.52,1.74,1.74,0,0,0,.35.54,1.31,1.31,0,0,0,.51.38,1.64,1.64,0,0,0,.67.14,1.61,1.61,0,0,0,.64-.14,3.71,3.71,0,0,0,.37-.21v.44a.93.93,0,0,1-.22.09,2,2,0,0,1-.83.18,2.06,2.06,0,0,1-.81-.17,2.37,2.37,0,0,1-.65-.45,1.63,1.63,0,0,1-.41-.66,2.17,2.17,0,0,1-.16-.81h0a2.24,2.24,0,0,1,.16-.8,1.78,1.78,0,0,1,.41-.66,2.25,2.25,0,0,1,.67-.47,2,2,0,0,1,.83-.17,1.47,1.47,0,0,1,.38.07,2.46,2.46,0,0,1,.42.22,1.89,1.89,0,0,1,.44.4,3.39,3.39,0,0,1,.32.66,3.23,3.23,0,0,1,.09.91ZM167,64a2.27,2.27,0,0,0-.66.13,2.94,2.94,0,0,0-.5.37,1.79,1.79,0,0,0-.33.54,3.4,3.4,0,0,0-.12.51h2.9a2.67,2.67,0,0,0-.12-.53,1.22,1.22,0,0,0-.19-.45l-.24-.29a1.17,1.17,0,0,0-.27-.15,1.78,1.78,0,0,0-.21-.1l-.19,0Z" transform="translate(-1.61)"/><path class="cls-2" d="M171.87,64.1h-.26a.76.76,0,0,0-.36.12,1.43,1.43,0,0,0-.43.25,2.63,2.63,0,0,0-.39.5,3.67,3.67,0,0,0-.25.81v1.94h-.38v-4h.38v1.08a2.09,2.09,0,0,1,.8-.91,1.79,1.79,0,0,1,.89-.23Z" transform="translate(-1.61)"/><path class="cls-2" d="M172,65.89a1.59,1.59,0,0,0,.13.52,1.2,1.2,0,0,0,.33.54,1.3,1.3,0,0,0,.53.38,1.46,1.46,0,0,0,.63.14,1.64,1.64,0,0,0,.67-.14,1.48,1.48,0,0,0,.34-.21v.44a.83.83,0,0,1-.2.09,1.86,1.86,0,0,1-.82.18,2.08,2.08,0,0,1-.82-.17,2.37,2.37,0,0,1-.65-.45,2.25,2.25,0,0,1-.42-.66,2.64,2.64,0,0,1-.14-.81h0a2.75,2.75,0,0,1,.14-.8,2.25,2.25,0,0,1,1.09-1.13,2,2,0,0,1,.81-.17,1.75,1.75,0,0,1,.42.07l.44.22c.14.11.26.26.42.4a2.3,2.3,0,0,1,.27.66,2.87,2.87,0,0,1,.12.91ZM173.58,64a2,2,0,0,0-.66.13,2.73,2.73,0,0,0-.52.37,1.91,1.91,0,0,0-.3.54,1.67,1.67,0,0,0-.13.51h2.9a2.09,2.09,0,0,0-.12-.53,1.12,1.12,0,0,0-.22-.45,1.82,1.82,0,0,0-.21-.29,1.74,1.74,0,0,0-.26-.15,2.59,2.59,0,0,0-.24-.1l-.17,0Z" transform="translate(-1.61)"/><path class="cls-2" d="M46.39,89.81,8,28.48,1.61,18.24l14,0L92,18.13l11.46,0-5.69,9.15-38,61.48-7,11.26ZM27.93,31.42l25.61,40.9L78.88,31.37Z" transform="translate(-1.61)"/><path class="cls-3" d="M77.47,60.9c-5.94-4.53-18.39-1.49-27.65,6.83s-11.94,18.8-6,23.34,18.48,1.6,27.77-6.75S83.54,65.51,77.47,60.9Z" transform="translate(-1.61)"/><path class="cls-4" d="M62,13.68c-6-5.86-19-5.14-28.91,1.69S20,32.56,25.92,38.43,45,43.71,55,36.86,68.13,19.66,62,13.68Z" transform="translate(-1.61)"/><path class="cls-5" d="M97.22,71.56,58.86,10.24,52.44,0,45.52,11.3l-38,61.48L1.83,81.93l11.38-.06,76.35-.16,14.08.09ZM51.72,27.72l25.61,40.9-51,0Z" transform="translate(-1.61)"/><path class="cls-6" d="M45.19,32.6c-7-3.84-19,.54-26.76,9.83s-8.35,20-1.38,23.85S36.19,65.84,44,56.53,52.31,36.52,45.19,32.6Z" transform="translate(-1.61)"/><polygon class="cls-2" points="31.71 68.66 7.18 29.7 26.32 31.42 49.62 68.65 31.71 68.66"/><path class="cls-7" d="M76.87,78.53c5.61-1.93,8.86-14.45,7.14-27.9S76.32,27.82,70.7,29.74s-9,14.46-7.26,27.94S71.14,80.5,76.87,78.53Z" transform="translate(-1.61)"/><polygon class="cls-2" points="88.74 39.2 71.74 66.67 60.11 59.1 81.8 24.18 88.74 39.2"/><path class="cls-5" d="M105.57,60.3V38.51h-7.8V36.58a2.69,2.69,0,0,1,.8-2,2.66,2.66,0,0,1,2-.81h18.2v4.7H111V60.3Z" transform="translate(-1.61)"/><path class="cls-2" d="M119.72,60.3V50.37a12.7,12.7,0,0,1,.88-5,8.32,8.32,0,0,1,2.4-3.27,9.49,9.49,0,0,1,3.41-1.69,14.92,14.92,0,0,1,4-.54h.77v5.47h-1.76a4.49,4.49,0,0,0-3.29,1.07,4.69,4.69,0,0,0-1.07,3.39V60.3Z" transform="translate(-1.61)"/><path class="cls-5" d="M132.18,33.81h2.75a2.61,2.61,0,0,1,2.6,2.62v1.62h-5.35Zm0,6h2.75a2.61,2.61,0,0,1,2.6,2.62V60.3h-5.35Z" transform="translate(-1.61)"/><path class="cls-5" d="M150.76,59.46a9.07,9.07,0,0,1-3.4,1,27.6,27.6,0,0,1-3.18.2,8,8,0,0,1-4.81-1.5q-2.07-1.5-2.07-5,0-3.24,1.88-4.62A10.7,10.7,0,0,1,144,47.75a4.22,4.22,0,0,0,.91-.12c.36-.07.77-.13,1.23-.19,2.24-.31,3.36-1,3.36-2a1.46,1.46,0,0,0-1.18-1.5,7.58,7.58,0,0,0-2.18-.35,5.73,5.73,0,0,0-1.92.31A2.09,2.09,0,0,0,143,45.05h-5.12A5.89,5.89,0,0,1,140,41.13a8.74,8.74,0,0,1,5.89-1.77q4.27,0,6.42,1.46a5,5,0,0,1,2.22,4.31v7A8.87,8.87,0,0,1,153.4,57,6.77,6.77,0,0,1,150.76,59.46ZM149.54,50a14,14,0,0,1-3,1l-1.76.39a4.55,4.55,0,0,0-2,1,3.15,3.15,0,0,0-.54,1.7,2.48,2.48,0,0,0,.69,1.84,2.84,2.84,0,0,0,2,.62,4.51,4.51,0,0,0,3.36-1.23,4.6,4.6,0,0,0,1.23-3.39Z" transform="translate(-1.61)"/><path class="cls-2" d="M173,60.3h-2.68a2.52,2.52,0,0,1-1.87-.73,2.59,2.59,0,0,1-.72-1.89V47.21a3.16,3.16,0,0,0-1.11-2.69,4,4,0,0,0-2.49-.85,3.78,3.78,0,0,0-2.44.85,3.2,3.2,0,0,0-1.07,2.69V60.3h-5.36v-12c0-3.49.91-5.82,2.72-7a11.77,11.77,0,0,1,6-1.92,11.37,11.37,0,0,1,6.19,1.77Q173,42.9,173,48.29Z" transform="translate(-1.61)"/><path class="cls-5" d="M187.31,59.07V57.76a5.85,5.85,0,0,1-3.71,2.7,7.51,7.51,0,0,1-4.62-.39A8.52,8.52,0,0,1,175,56.65a11.81,11.81,0,0,1-1.65-6.59,12.79,12.79,0,0,1,2.18-7.74q2.19-3,7-3a12.31,12.31,0,0,1,6.8,2c2.1,1.34,3.14,3.8,3.14,7.39V59.61c0,3.6-1,6-3.14,7.35a12.53,12.53,0,0,1-6.8,2q-7,0-8.72-6.62h5.59A4,4,0,0,0,181.31,64a3.9,3.9,0,0,0,2.52.31,4.17,4.17,0,0,0,2.3-1.5A6.34,6.34,0,0,0,187.31,59.07Zm-8.71-8.86c0,3.55,1,5.51,3.05,5.9s3.54-.09,4.51-1.43a5.8,5.8,0,0,0,1-2.66,11.32,11.32,0,0,0,0-3.58,7.07,7.07,0,0,0-1.27-3.15A3.33,3.33,0,0,0,183,43.9a3.52,3.52,0,0,0-3.52,1.93A10.06,10.06,0,0,0,178.6,50.21Z" transform="translate(-1.61)"/><path class="cls-2" d="M193.66,33.81h2.75a2.57,2.57,0,0,1,1.84.73,2.4,2.4,0,0,1,.76,1.81V60.3h-5.35Z" transform="translate(-1.61)"/><path class="cls-5" d="M214.08,54h3.82a8.44,8.44,0,0,1-3.21,4.93,9.7,9.7,0,0,1-6,1.77,8.46,8.46,0,0,1-6.8-2.85c-1.63-1.85-2.45-4.5-2.45-7.93s.79-5.86,2.37-7.71a8.51,8.51,0,0,1,6.8-2.84,9.13,9.13,0,0,1,7.12,2.77q2.44,2.85,2.44,7.93v.85a1.39,1.39,0,0,1-.07.54H204.9A5.34,5.34,0,0,0,206,55a3.62,3.62,0,0,0,3,1.23,4.33,4.33,0,0,0,2.23-.54,1,1,0,0,0,.41-.27c.14-.12.27-.27.43-.42a1.63,1.63,0,0,1,.57-.62A2.31,2.31,0,0,1,214.08,54Zm-9.18-6h7.8a5,5,0,0,0-1.08-3.08,3.63,3.63,0,0,0-2.83-1.08A3.73,3.73,0,0,0,206,44.9,4.44,4.44,0,0,0,204.9,48Z" transform="translate(-1.61)"/></g></g></svg>