<svg viewBox="0 0 32 32" xml:space="preserve" xmlns="http://www.w3.org/2000/svg"><path fill="#030a1e" d="M29 24a1 1 0 0 0-1 1v2.5a.5.5 0 0 1-1 0V6.17c0-2.224-1.663-4.053-3.786-4.164A3.769 3.769 0 0 0 23 2H6C3.794 2 2 3.794 2 6a1 1 0 0 0 1 1h2v19.268A3.737 3.737 0 0 0 8.732 30H27c.059 0 .111-.024.167-.034.11.015.219.034.333.034 1.379 0 2.5-1.122 2.5-2.5V25a1 1 0 0 0-1-1zM6 4h13.537c-.18.313-.318.65-.409 1H4.269A2 2 0 0 1 6 4zm1 22.268V7h13a1 1 0 0 0 1-1c0-.554.222-1.069.624-1.451a2.014 2.014 0 0 1 1.484-.546C24.151 4.058 25 5.03 25 6.17V27.5c0 .171.018.338.051.5H8.732A1.734 1.734 0 0 1 7 26.268z"/><path fill="#030a1e" d="m10.293 14.121.707-.707.707.707a.997.997 0 0 0 1.414 0 .999.999 0 0 0 0-1.414L12.414 12l.707-.707a.999.999 0 1 0-1.414-1.414l-.707.707-.707-.707a.999.999 0 1 0-1.414 1.414l.707.707-.707.707a.999.999 0 1 0 1.414 1.414zM21.707 18.293a.999.999 0 0 0-1.414 0l-.707.707-.707-.707a.999.999 0 1 0-1.414 1.414l.707.707-.707.707a.999.999 0 1 0 1.414 1.414l.707-.707.707.707a.997.997 0 0 0 1.414 0 .999.999 0 0 0 0-1.414L21 20.414l.707-.707a.999.999 0 0 0 0-1.414z"/><path fill="#ff1d00" d="m19.662 14.147.39 1.169a.999.999 0 1 0 1.896-.633l-1-3a.987.987 0 0 0-.176-.31c-.015-.018-.033-.031-.049-.048a.979.979 0 0 0-.238-.187c-.013-.007-.021-.02-.034-.027-.013-.007-.027-.005-.041-.011a.975.975 0 0 0-.299-.082c-.02-.002-.039-.008-.059-.009-.017-.001-.034-.009-.052-.009h-4a1 1 0 1 0 0 2h2.004a13.849 13.849 0 0 1-2.559 2.168c-3.048 2.032-3.032 3.621-2.66 5.813.106.623.215 1.267.215 2.019 0 .542-.181.746-.315.852-.569.445-1.893.312-2.444.177a.996.996 0 0 0-1.21.728.999.999 0 0 0 .728 1.213c.135.034.809.191 1.635.191.816 0 1.781-.153 2.521-.731C14.409 25.043 15 24.307 15 23c0-.921-.129-1.682-.243-2.353-.282-1.663-.398-2.351 1.798-3.815 1.429-.953 2.422-1.905 3.107-2.685z"/></svg>