<svg id="Layer_1" style="enable-background:new 0 0 50 50" version="1.1" viewBox="0 0 50 50" xml:space="preserve" xmlns="http://www.w3.org/2000/svg"><style>.st0{fill:#b7c5fd}.st7{fill:#6bb5fb}.st11{fill:#384e85}</style><circle cx="26.36" cy="25" r="18.006" style="fill:#4466fb"/><path class="st7" d="M36.235 9.94c-.435.026-.486.293-.356 1.201-.591-.14-1.169.402-1.771.05-.035-.019-.105-.003-.14-.004-.581.104-.598.086-.473-.558.021-.122.078-.243.081-.348.004-.14.01-.297-.021-.438l-.07-.003c-.102.435-.446.81-.305 1.34-.001.052-.111.206-.164.205-.42.022-.76.204-.931.654-.036.034-.09.102-.126.101-.316.043-.55.21-.63.559-.02.069-.161.1-.233.15-.124.049-.214.133-.32.183-.107.049-.232.097-.338.147l-.339.182c.068.09.134.214.22.287.188.128.395.222.549.367.186.199.202.812.005.964-.126.083-.35-.011-.507-.051-.297-.044-.556-.157-.835-.166-.333-.01-.518.299-.387.6.08.231.092.424-.038.648-.167.31-.098.908.11.967.277.113.555.192.833.236.244.06.474-.02.57-.298.265-.64.699-1.064 1.253-1.415.054-.033.125-.083.16-.1-.117-.16-.183-.303-.267-.411a.664.664 0 0 1 .453.067c.26.113.503.173.672-.19.059-.19.216-.185.334-.024.05.089.134.18.148.302.108.459.436.627.744.847.138.092.309.22.356.378.049.125.024.351-.032.472-.055.086-.23.08-.372.129l-.21-.006c0 .017-.019.052-.02.069.103.09.22.252.344.22.316-.025.541-.508.541-1.068.121.039.226.06.347.115.018-.016.037-.068.055-.085-.221-.2-.461-.365-.665-.581-.29-.255-.617-.423-.62-.896-.03-.14-.147-.354.083-.4.193-.029.438-.004.428.294.002.508.313.658.64.825.139.057.277.114.361.222.085.09.15.25.13.337-.115.294-.051.506.1.721.067.09.116.196.148.285.067.125.097.265.129.39.108-.103.215-.17.323-.27a.464.464 0 0 0 .091-.103c.163-.153.183-.275-.004-.42-.12-.092-.186-.234-.287-.342.287-.237.531-.212.792-.134.191.042.42.031.563-.07.053-.033-.024-.35-.018-.543-.013-.176-.059-.387.016-.525.078-.243.224-.448.352-.62.127-.154.308-.34.378-.32.19.075.324.272.441.451.103.073.15.267.255.27.121.022.282-.078.423-.126.002-.053-.014-.07-.013-.106-.173-.075-.33-.133-.502-.208l.003-.105c.424-.11.848-.236 1.273-.363-.077.208-.186.327-.295.48-.22.292-.224.414.032.65.153.127.343.238.46.417.083.125.111.354.071.51-.02.105-.234.203-.356.2a1.486 1.486 0 0 1-.607-.212c-.395-.258-.78-.252-1.154-.036-.32.13-.604.261-.907.41-.071.05-.196.116-.198.186.095.318.155.653.303.955.032.089.328.168.382.117.2-.221.301-.113.454.032.185.233.36.256.559.053.055-.069.108-.085.126-.102.098.214.162.408.28.552.169.215.165.338-.05.524-.144.1-.29.306-.296.463.008.316-.098.33-.29.307-.26-.06-.556-.123-.802-.095-.686.084-1.276-.11-1.859-.496-.12-.091-.328-.15-.4-.065-.108.067-.115.294-.103.452.042.352-.049.454-.342.305-.378-.222-.756-.48-1.116-.718-.36-.24-.56-.543-.423-1.03.062-.312-.108-.476-.407-.45-.175.012-.37.059-.525.001-.59-.176-1.117-.122-1.67.211-.305.2-.641.33-1.02.108-.034-.018-.195.082-.268.167-.181.205-.362.392-.528.632-.11.19-.258.43-.247.623.022.42-.075.715-.396.916-.482.3-.76.8-.987 1.318-.074.12-.113.259-.186.362-.218.256-.228.57-.098.89.127.407.115.81-.021 1.243-.078.243-.14.573-.024.77.249.445.462.89.568 1.419.016.07.049.142.1.195.288.307.558.63.864.921.238.235.514.384.818.165.322-.217.69-.24 1.06-.3a.612.612 0 0 0 .425-.126c.322-.235.617-.139.89.097.17.164.3.5.62.318.019-.018.088.02.121.073.273.22.363.73.195 1.058-.206.431-.234.745.02 1.016.271.306.472.628.493 1.049.014.14.079.3.145.425.31.728.34 1.447-.066 2.117-.297.516-.33 1.023-.067 1.592.228.55.385 1.133.419 1.73.02.473.128.932.308 1.34.232.445.375.905.306 1.428-.047.385.055.493.389.45.456-.02.896-.094 1.336-.168.071-.015.16-.083.233-.133.682-.557 1.228-1.205 1.277-2.202.026-.28.152-.38.364-.444.107-.067.233-.186.271-.29.097-.277.07-.54-.079-.825-.048-.124-.058-.387-.002-.49.2-.275.437-.53.706-.732.573-.42.902-1.426.714-2.132-.144-.425-.183-.864-.274-1.322-.17-.724.194-1.168.68-1.573.359-.287.736-.59.976-.985.44-.635.813-1.359 1.185-2.048.093-.172.1-.4.159-.59-.193-.006-.385-.012-.545.035-.351.042-.688.171-1.022.213-.088.015-.207-.093-.274-.2-.182-.339-.364-.695-.563-1.052-.032-.106-.099-.196-.166-.303-.113-.284-.244-.585-.34-.886-.174-.583-.332-1.149-.506-1.733-.08-.247-.125-.494-.205-.741-.098-.231-.196-.462-.311-.693.123-.031.192.006.226.06.317.5.616 1.017.933 1.535.05.054.03.158.044.264.065.16.078.318.125.477.345.729.762 1.407.787 2.284-.007.227.13.337.379.222.196-.1.425-.145.62-.243.32-.13.623-.297.927-.497.286-.184.574-.438.877-.621.43-.267.686-.662.825-1.165.04-.14-.076-.37-.141-.53-.066-.125-.222-.2-.323-.308-.204-.217-.395-.275-.647-.038-.216.186-.48.248-.699-.074-.016-.053-.103-.056-.137-.092-.05-.089-.15-.215-.131-.284.115-.312.017-.543-.17-.758-.084-.09-.186-.2-.234-.323a.655.655 0 0 1 .011-.368c.055-.086.213-.08.334-.042.278.061.375.345.472.593.226.603.364.677.929.554.088-.032.228-.01.278.061.135.213.288.366.458.468A18.022 18.022 0 0 0 36.235 9.94zM9.464 26.628c.431.01.604.12.762.495.033.07.137.127.228.187.055.041.158.036.203.091.197.23.485.142.714.214.072-.112.116-.218.16-.325.403.277.645.736.573 1.071-.074.335-.146.66-.185.98-.007.115.086.246.132.375.017.046.078.134.049.178-.079.28-.013.494.293.616.543.223.855.616 1.16 1.035.245.32.506.585.967.608.493.027.719.181.896.574.123.282.216.56.34.854.167.41.304.83.537 1.211.17.296.271.575.37.895.13.452.332.925.567 1.375.037.08.183.15.275.213.05.05.073.108.102.15.071.175.162.33.257.51.096.208.28.438-.103.532.304.029.45.137.527.353-.005.015.019.047.048.064.335.176.348.347.13.482.264.189.54.345.81.53a.992.992 0 0 0 .75.205c.248-.014.485.002.45-.27.002-.041.106-.082.15-.113.062-.05.119-.086.18-.137-.15.005-.234.05-.35.055-.096.01-.247.013-.294-.023a8.703 8.703 0 0 1-.715-.581c-.016-.021-.025-.099.004-.15.04-.19.083-.379.156-.551.065-.183-.07-.253-.265-.29-.18-.04-.37-.093-.6-.158.065-.049.082-.095.122-.109.31-.267.324-.455.069-.85-.044-.063-.03-.21.044-.249.225-.18.105-.332-.06-.508-.048-.049-.083-.102-.144-.171.358-.053.706-.068.692-.444.007-.294-.042-.528-.488-.676.283-.065.519-.102.768-.17-.189-.176-.216-.33-.038-.434.063-.057.08-.137.103-.206.158-.357.04-.7-.155-1.054-.117-.184-.056-.336.096-.464.188-.151.39-.306.555-.472a.594.594 0 0 0 .135-.407c.04-.165-.006-.352.043-.507.067-.182.143-.377-.018-.555-.356-.393-.323-.774-.06-1.161.044-.08.096-.173.117-.27.102-.23.048-.476-.18-.591-.468-.26-.965-.42-1.515-.352-.3.045-.58.027-.861-.085-.228-.088-.495-.205-.757-.01.039-.404-.148-.7-.448-.942-.091-.051-.252-.136-.347-.106-.589.175-1.103-.09-1.628-.266-.046-.004-.076-.058-.089-.103-.152-.28-.252-.322-.54-.129-.274.191-.558.075-.832.05-.14-.024-.268-.063-.38-.092.034.127.054.256.09.383.003.012-.009.025.001.06-.06-.002-.145.013-.15-.01a32.68 32.68 0 0 1-.153-.566c-.33.32-.702.542-.718 1.011-.4-.262-.403-.276-.811-.032-.136.097-.242.04-.36-.064-.323-.257-.36-.625-.443-.972-.075-.373-.14-.413-.509-.284-.057.008-.097.027-.125.031-.103.003-.205.005-.305.02-.007-.1-.015-.198-.02-.285.02-.316.042-.63.067-.957-.444.045-.543.145-.562.486.003.087-.009.24-.063.26-.166.068-.336.182-.512.187.006.146.014.29.024.435.192.025.369.108.556.212.152.079.332.153.511.163z"/><path class="st11" d="M36.37 10.034c2.893 3.195 4.67 7.419 4.67 12.068 0 9.945-8.061 18.006-18.006 18.006a17.919 17.919 0 0 1-10.01-3.04c3.295 3.638 8.041 5.938 13.336 5.938 9.945 0 18.006-8.062 18.006-18.006 0-6.24-3.175-11.735-7.996-14.966z" style="opacity:.3"/><path class="st7" d="M8.479 23.2c.345-.46.374-.459.97-.213.092.04.221.026.305.005.152-.053.217.001.236.134.038.069.022.157.063.238.089.309.276.47.585.493-.115-.254-.222-.486-.317-.743a.718.718 0 0 1-.07-.297c.024-.369.192-.677.497-.924.277-.244.325-.487.183-.811a2.015 2.015 0 0 0-.12-.254c.08-.067.164-.11.231-.175.27-.261.584-.5.8-.776.202-.263.425-.432.75-.57.031.102.063.182.11.26.085-.006.2.009.255-.03.28-.15.532-.294.798-.451.14-.09.165-.23.035-.359-.043.026-.085.04-.127.078-.35.253-.51.23-.687-.13-.015-.069-.059-.148-.045-.207.069-.317-.142-.433-.455-.453-.015 0-.014-.023-.042-.08.27-.013.512-.037.768-.038.242-.012.498.009.769.005a.5.5 0 0 1 .039-.237c.273-.035.58-.106.778-.302.037-.037.372-.72.163-.692l1.23-.161c.137-.019.289-.045.374-.154.06-.078.074-.182.084-.28.052-.554.071-1.128.206-1.662.107-.171.21-.343.304-.523.127-.209.224-.296.472-.253.234.043.416-.045.62-.185.236-.173.496-.301.78-.407.377-.148.771-.231 1.159-.355.104-.031.24-.082.247-.124.04-.23.222-.217.434-.226l.053-.706c.065-.04.138-.122.221-.182.186-.141.423-.259.402-.476-.048-.219-.008-.384.398-.43a27.17 27.17 0 0 1-.569-.376c.62-.326 1.187-.637 1.739-.932-.248-.166-1.206-.177-1.6.009-.243.11-.271.11-.394-.003.256-.153.494-.285.751-.435-.424-.186-.824-.354-1.222-.526l-.055-.004c-.263-.016-.52-.037-.778-.056-.4.156-.902.382-1.428.63-5.397 2.674-9.262 7.974-9.924 14.23l-.012.116h.036z"/><path class="st0" d="M43.165 18.59c.14.367.26.74.376 1.118 5.784 2.47 4.89 6.093-2.713 8.27-8.666 2.48-22.811 2.48-31.534 0-8.723-2.481-8.769-6.768-.103-9.249.112-.032.234-.058.347-.09.116-.305.244-.604.376-.902-.774.174-1.529.357-2.24.56-9.502 2.72-9.451 7.143.112 9.863 9.557 2.718 25.058 2.72 34.56 0 9.165-2.624 9.408-6.835.82-9.57z"/><path class="st0" d="M40.676 35.864c-.064.09-.122.186-.188.275 1.111 4.212-2.15 5.317-8.362 2.182-8.048-4.061-18.434-13.664-23.154-21.407-4.72-7.744-1.763-10.761 6.285-6.7.157.08.319.17.48.258.233-.172.474-.334.717-.495a38.77 38.77 0 0 0-2.019-1.11C5.612 4.414 2.647 7.695 7.823 16.185c5.171 8.484 16.552 19.009 25.375 23.462 7.797 3.935 11.005 1.811 8.069-4.598-.189.279-.387.548-.59.815z"/><path class="st0" d="M27 6.302c-.208.218-.41.46-.615.693.504.001 1 .032 1.493.076 5.678-5.27 10.378-2.387 10.19 6.544-.196 9.407-5.336 22.3-11.458 28.742-5.471 5.758-10.25 4.126-10.99-2.935a18.126 18.126 0 0 1-1.181-.957c.023 9.757 5.214 12.138 11.779 5.23 6.707-7.057 12.342-21.185 12.558-31.5.215-10.306-5.07-12.95-11.777-5.893z"/><path class="st0" d="M41.008 14.578c.217.306.425.618.624.937 5.449.187 5.88 3.578.225 8.24-6.683 5.51-19.145 10.934-27.78 12.094C6.19 36.907 4.06 33.89 8.857 29.192c-.077-.322-.142-.65-.202-.979-7.037 5.922-5.245 9.699 4.115 8.442 9.462-1.27 23.119-7.213 30.446-13.254 6.868-5.661 5.761-9.425-2.21-8.823z"/><circle class="st11" cx="18.123" cy="35.577" r="1.079"/><circle class="st11" cx="5.028" cy="27.019" r="1.576"/><circle class="st11" cx="13.025" cy="8.762" r="1.079"/><circle class="st11" cx="38.39" cy="13.368" r="1.576"/><circle class="st11" cx="34.682" cy="29.335" r="1.121"/><circle class="st11" cx="47.46" cy="25" r="1.576"/><circle class="st11" cx="23.809" cy="45.301" r="1.576"/></svg>