<svg id="Layer_1" style="enable-background:new 0 0 50 50" version="1.1" viewBox="0 0 50 50" xml:space="preserve" xmlns="http://www.w3.org/2000/svg"><style>.st0{fill:#b7c5fd}.st1{fill:#9aadfd}.st5{fill:#aabafd}.st8{enable-background:new}.st11{fill:#384e85}</style><path class="st0" d="m4.98 38.486 15.685 9.115c.332.194.868.194 1.2.003l23.833-13.761c.332-.191.332-.502 0-.696l-15.685-9.115c-.33-.19-.865-.19-1.197 0L4.983 37.79c-.332.194-.336.505-.003.696z"/><path class="st1" d="M22.975 39.732c-.205.119-.204.311 0 .43l4.228 2.457c.204.118.536.12.741.001l8.333-4.81c.205-.119.204-.312 0-.43l-4.228-2.457a.819.819 0 0 0-.742-.002l-8.332 4.811z"/><path class="st1" d="m4.734 38.141.003 1.256c0 .123.083.25.246.345l15.685 9.115c.332.19.868.19 1.2 0l23.833-13.759c.166-.095.25-.221.25-.35l-.004-1.253c0 .126-.083.252-.25.348L21.866 47.604c-.332.191-.868.191-1.2-.003L4.98 38.486c-.166-.095-.246-.219-.246-.345z"/><path d="M28.77 7.132c.331-.192.601-.038.602.344l.043 15.518c.001.38-.267.846-.6 1.038L5.327 37.592c-.332.192-.602.036-.603-.344L4.681 21.73c-.001-.381.267-.846.599-1.038l23.49-13.56z" style="fill:#2e4277"/><path class="st11" d="m4.05 21.365.043 15.517c0 .188.068.323.175.385l.63.366c-.107-.061-.175-.197-.175-.384L4.68 21.73c0-.381.268-.846.6-1.04L28.77 7.132c.166-.095.316-.104.427-.043l-.63-.366c-.108-.062-.261-.053-.428.043L4.65 20.328c-.332.19-.6.655-.6 1.037z"/><path style="fill:#fff" d="m5.528 21.51.041 14.965 22.998-13.277-.04-14.965z"/><path class="st11" d="m9.79 37.36-1.506.876-.648-.375 1.505-.875zM25.989 27.947l-1.508.876-.649-.374 1.508-.876zM30.038 25.594l-1.507.876-.649-.375 1.508-.876zM27.336 31.072l-1.505.875-1.339-.773 1.506-.875zM34.762 30.668l-1.508.876-1.34-.774 1.507-.876zM36.788 29.49l-1.508.876-3.029-1.748 1.508-.876z"/><g class="st8"><path class="st11" d="m31.726 26.568-2.78 1.616-1.34-.775 2.78-1.615zM28.43 28.484l-1.507.876-1.341-.774 1.507-.877zM33.412 27.541l-3.534 2.054-1.338-.773 3.533-2.053zM29.362 29.895l-1.507.876-1.339-.773 1.508-.876zM31.05 30.87l-1.508.875-1.34-.774 1.507-.876z"/></g><path class="st11" d="m26.404 29.66-1.507.877-1.341-.774 1.508-.876zM23.963 29.124 22.457 30l-.648-.374 1.505-.875zM21.939 30.3l-1.508.877-.648-.375 1.507-.876zM22.95 35.576l-1.507.876-1.34-.774 1.507-.876z"/><g class="st8"><path class="st11" d="m19.913 31.478-1.506.875-.648-.375 1.505-.875zM22.355 32.014l-1.506.875-1.34-.774 1.505-.875zM17.89 32.654l-1.508.876-.649-.374 1.508-.876zM20.33 33.19l-1.507.876-1.34-.774 1.507-.876zM23.287 33.426l-1.506.874-1.339-.772 1.506-.875zM15.865 33.83l-1.507.876-.649-.374 1.508-.876zM18.307 34.367l-1.508.876-1.34-.774 1.507-.877zM24.974 34.4l-1.505.875-1.34-.774 1.505-.875zM21.263 34.602l-1.508.876-1.338-.773 1.507-.876zM13.84 35.007l-1.508.876-.649-.374 1.508-.876zM16.281 35.544l-1.507.876-1.341-.774 1.507-.876zM19.239 35.778l-1.508.876-1.338-.773 1.507-.876zM14.257 36.72l-1.507.876-1.341-.774 1.508-.876zM20.927 36.752l-1.508.876-1.34-.774 1.507-.876zM17.213 36.955l-1.508.876-1.338-.773 1.507-.876zM18.9 37.93l-1.507.876-1.34-.774 1.507-.876zM26.749 35.324l-7.668 4.456-1.34-.774 7.667-4.456zM16.877 39.106l-1.507.876-1.341-.774 1.507-.876zM15.19 38.131l-3.532 2.052-1.339-.772 3.532-2.053zM14.851 40.283l-1.505.875-1.341-.774 1.505-.875zM18.565 40.08l-3.531 2.052-1.341-.774 3.531-2.052z"/></g><path class="st11" d="m11.816 36.183-1.508.877-.648-.375 1.507-.876zM28.012 26.771l-1.507.876-.649-.374 1.508-.876zM24.38 30.837l-1.507.876-1.34-.774 1.507-.876zM28.688 34.197l-1.507.876-1.341-.774 1.507-.876zM27 33.223l-1.507.876-1.341-.774 1.508-.876zM25.312 32.248l-1.507.876-1.339-.772 1.508-.877zM32.738 31.844l-1.508.876-1.34-.774 1.507-.876zM30.712 33.021l-1.506.875-1.34-.774 1.505-.875zM12.231 37.897 9.972 39.21l-1.34-.774 2.259-1.313z"/><path class="st0" d="m27.22 1.346.044 15.294L7.701 27.935 7.658 12.64z"/><path class="st1" d="M27.217 1.348 26.624 1 7.06 12.291l.045 15.294.595.349-.043-15.293z"/><g class="st8"><path class="st5" d="m17.435 12.966 9.829 3.674L7.701 27.935z"/><path style="fill:#8ca1fd" d="m17.43 11.658 9.834 4.982-9.83-3.674-9.733 14.969L27.242 16.64 7.702 27.935z"/></g><path class="st0" d="m27.22 1.346-9.733 14.968-9.829-3.673z"/><path class="st5" d="m27.22 1.346-9.73 16.146-9.832-4.851 9.83 3.673z"/></svg>