<svg id="Layer_1" style="enable-background:new 0 0 50 50" version="1.1" viewBox="0 0 50 50" xml:space="preserve" xmlns="http://www.w3.org/2000/svg" xmlns:xlink="http://www.w3.org/1999/xlink"><style>.st1{fill:#b7c5fd}.st4{fill:#3955d1}.st5{fill:#4466fb}.st7{fill:#798ffe}.st8{fill:#6bb5fb}.st9{enable-background:new}.st10{fill:#1b2a4f}.st19{fill:#384e85}.st20{fill:#2e4277}.st21{fill:#d9ddf6}</style><pattern height="32.252" id="Unnamed_Pattern_12" patternUnits="userSpaceOnUse" style="overflow:visible" viewBox="0 -32.252 32.252 32.252" width="32.252" x="-70" y="-70"><path style="fill:none" d="M0-32.252h32.252V0H0z"/><path class="st1" d="M0-32.252h32.252V0H0z"/></pattern><path class="st19" d="m47.903 38.469-13.651 7.933c-.323.188-.843.188-1.165.003L9.957 33.049c-.324-.185-.324-.487 0-.675l13.65-7.934c.32-.185.84-.185 1.163 0L47.9 37.793c.323.189.326.49.003.676z"/><path class="st20" d="M27.766 36.654c.183.106.182.28 0 .385l-3.794 2.205a.734.734 0 0 1-.665.001l-7.476-4.316c-.183-.106-.182-.28 0-.385l3.794-2.205a.734.734 0 0 1 .665-.001l7.476 4.316z"/><path class="st10" d="m48.142 38.134-.003 1.219c0 .12-.08.242-.239.334L34.25 47.621c-.323.185-.843.185-1.165 0L9.954 34.268c-.162-.093-.243-.215-.243-.34l.003-1.217c0 .123.08.245.242.338l23.13 13.356c.323.185.843.185 1.166-.003l13.651-7.933c.162-.093.24-.213.24-.335z"/><path class="st7" d="m27.378 28.045-.433.252-1.048-.604.434-.253zM21.669 29.734l-.96.558-2.454-1.417.96-.558zM21.469 28.22l-.96.557-1.046-.604.959-.558zM22.877 29.032l-.96.558-1.047-.605.96-.557zM24.084 28.33l-.959.558-2.455-1.417.96-.558zM25.49 29.142l-.96.558-1.046-.605.96-.557zM27.22 28.744l-.958.556-1.047-.604.958-.557zM25.814 27.932l-.958.557-1.047-.605.958-.557zM25.973 27.233l-.434.252-1.047-.604.433-.252zM24.406 27.12l-.957.556-1.571-.907.958-.557zM24.565 26.42l-.434.253-1.047-.605.434-.252zM33.005 31.294l-.433.252-1.048-.605.434-.252zM32.847 31.993l-.958.556-1.047-.605.958-.556zM31.44 31.18l-.957.557-1.047-.604.958-.557zM27.096 31.469l-.96.557-1.046-.605.959-.557zM28.504 32.281l-.96.558-1.047-.605.96-.557z"/><g class="st9"><path class="st7" d="m28.786 28.858-.434.252-1.047-.605.434-.252zM30.192 29.67l-.434.251-1.047-.604.434-.252zM28.627 29.556l-.957.557-1.047-.605.957-.556zM26.898 29.955l-.96.557-1.047-.604.96-.558zM30.033 30.368l-.957.557-1.047-.605.957-.556zM25.69 30.657l-.96.557-1.046-.604.959-.558zM28.304 30.767l-.96.557-1.047-.604.96-.558zM28.702 33.795l-.958.556-6.674-3.853.958-.557z"/></g><path class="st7" d="m31.6 30.482-.434.252-1.047-.604.433-.252zM34.413 32.107l-.434.252-1.049-.606.434-.252zM37.225 33.73l-.434.252-1.047-.605.434-.252z"/><g class="st9"><path class="st7" d="m29.711 31.58-.959.557-1.047-.605.96-.557zM31.117 32.391l-.959.558-1.047-.605.96-.558z"/></g><path class="st7" d="m32.525 33.204-.96.557-1.048-.605.959-.558zM34.253 32.804l-.958.557-1.045-.604.957-.556zM33.93 34.015l-.959.558-1.047-.605.96-.557zM32.921 36.23l-.96.558-1.046-.604.96-.558zM34.129 35.529l-.96.557-1.047-.604.96-.558zM36.744 35.64l-.959.557-2.455-1.417.96-.557z"/><g class="st9"><path class="st7" d="m38.632 34.543-.433.252-1.047-.605.433-.252zM37.95 34.939l-.957.556-1.931-1.115.957-.556z"/></g><path class="st7" d="m35.66 33.617-.957.556-1.047-.604.957-.557zM35.819 32.918l-.434.252-1.047-.604.434-.252zM40.768 37.963l-.96.557-1.046-.604.959-.558zM43.582 39.587l-.96.558-1.047-.605.96-.557zM36.945 38.554l-.96.557-1.047-.604.96-.558z"/><g class="st9"><path class="st7" d="m41.248 36.053-.433.252-1.047-.605.433-.252zM40.566 36.45l-.957.556-1.047-.605.957-.556zM42.656 36.866l-.434.252-1.047-.605.434-.252zM39.36 37.15l-.959.558-1.047-.605.96-.557zM41.974 37.262l-.958.557-1.047-.605.958-.556zM38.153 37.852l-.96.558-1.047-.605.96-.558zM43.38 38.074l-.958.556-1.047-.604.958-.557zM39.56 38.665l-.959.557-1.047-.604.96-.558zM42.174 38.775l-.96.557-1.047-.604.96-.558zM40.966 39.476l-.96.558-1.046-.605.959-.557z"/></g><path class="st7" d="m24.283 29.844-.96.558-1.047-.605.96-.557zM30.11 34.607l-.96.558-1.049-.606.96-.557zM31.317 33.906l-.96.557-1.048-.605.96-.558zM31.515 35.42l-.959.557-1.047-.605.96-.557zM32.723 34.717l-.96.558-1.046-.605.959-.557zM29.91 33.093l-.96.557-1.047-.604.96-.558zM34.329 37.044l-.96.557-1.047-.605.96-.557zM44.788 38.886l-.958.557-1.047-.605.957-.556zM45.47 38.49l-.434.252-1.047-.604.434-.253zM44.062 37.677l-.434.252-1.047-.604.434-.252zM38.353 39.367l-.96.557-1.047-.604.96-.558zM42.374 40.29l-2.167 1.259-1.047-.605 2.167-1.26zM39.758 40.178l-.959.558-1.047-.605.96-.557z"/><path class="st10" d="M47.612 19.986c.322.186.583.638.582 1.008l-.041 16.273c-.001.369-.264.52-.586.334L24.77 24.441c-.323-.187-.583-.64-.582-1.008l.041-16.274c.001-.37.264-.52.586-.333l22.797 13.16z"/><path class="st19" d="m48.806 20.64-.042 16.272c0 .182-.065.314-.17.373l-.611.356c.104-.06.17-.191.17-.373l.042-16.273c0-.37-.26-.822-.583-1.01L24.815 6.825c-.162-.092-.308-.1-.416-.041l.612-.356c.104-.06.254-.05.415.042l22.798 13.163c.322.185.582.636.582 1.006z"/><path class="st21" d="m47.371 20.795-.04 15.722-22.32-12.886.04-15.721z"/><path class="st5" d="m44.762 16.103-.037 12.398c0 .203-.072.346-.188.413l.8-.464c.115-.067.187-.21.187-.414l.037-12.397-.8.464z"/><path class="st8" d="m44.762 16.103-.037 12.398c-.001.409-.29.574-.645.369l-16.624-9.598c-.356-.206-.643-.703-.642-1.113l.036-12.397 17.912 10.341z"/><path style="fill:#fff" d="m27.547 6.974-.032 11.522 16.51 9.532.034-11.52z"/><g class="st9"><path class="st19" d="m45.568 13.662-.005 1.977-.8.462.004-1.973c0-.41-.288-.907-.643-1.11L27.5 3.42c-.177-.101-.34-.111-.456-.046l.796-.466c.122-.066.284-.056.461.046l16.624 9.599c.354.208.643.704.643 1.11z"/><path class="st20" d="M44.126 13.017c.355.205.642.702.64 1.11l-.004 1.976L26.85 5.762l.006-1.976c0-.408.29-.572.646-.367l16.624 9.598z"/></g><path class="st1" d="M43.546 13.328c-.245-.14-.443-.027-.444.253 0 .28.197.621.44.762.244.14.442.029.443-.252a.972.972 0 0 0-.44-.763zM40.71 11.692c-.244-.141-.442-.028-.443.253 0 .28.197.62.44.762.244.14.442.028.443-.252a.972.972 0 0 0-.44-.763zM42.128 12.51c-.244-.14-.443-.028-.444.253s.197.621.441.762c.244.14.442.028.443-.252a.97.97 0 0 0-.44-.763z"/><path class="st21" d="m30.555 13.155.675 1.168c-.801.25-1.395.914-1.656 1.926l-.138-.08c.035-1.352.45-2.373 1.12-3.014z"/><path class="st1" d="m34.94 13.098-.006 2.36a7.018 7.018 0 0 0-.89-.616c-1.06-.611-2.037-.762-2.814-.52l-.675-1.167c1.004-.964 2.59-1.058 4.385-.057z"/><g class="st9"><path d="M39.348 17.997c.757 1.507 1.221 3.123 1.25 4.617l-2.107-1.217a10.078 10.078 0 0 0-.83-2.436l1.687-.964z" style="fill:#9aadfd"/><path d="M35.04 13.15c1.74 1.004 3.289 2.821 4.308 4.847l-1.687.964c-.666-1.364-1.625-2.618-2.727-3.503l.006-2.36c.031.018.065.032.1.051z" style="fill:#aabafd"/></g><path d="m38.538 16.744-3.984 2.658c.11.382.05.724-.175.853-.151.086-.348.059-.545-.055a1.576 1.576 0 0 1-.547-.578c-.3-.52-.299-1.083.003-1.255.151-.086.349-.058.546.056.095.055.19.13.28.222l4.422-1.901z" style="fill:#535d88"/><path class="st5" d="m20.034 8.119-.006 16.504c0 .239-.158.477-.472.66l-7.043 4.093c-.632.367-1.658.367-2.294 0l-8.546-4.934c-.32-.185-.48-.427-.48-.67L1.2 7.27c0 .241.16.483.479.667l8.546 4.935c.636.366 1.662.366 2.294 0l7.043-4.094c.314-.182.471-.42.472-.66z"/><path class="st8" d="M19.555 7.45c.635.367.639.961.007 1.328l-7.043 4.093c-.632.367-1.659.368-2.294 0L1.679 7.938c-.636-.367-.64-.961-.008-1.328l7.044-4.094c.631-.367 1.658-.367 2.294 0l8.546 4.935z"/><path class="st5" d="M16.8 7.82c.281.162.282.425.003.588l-4.933 2.867c-.28.162-.733.162-1.014 0L4.434 7.567c-.281-.162-.283-.426-.004-.588l4.933-2.867c.28-.162.734-.162 1.015 0L16.8 7.82z"/><path class="st4" d="M9.599 13.74 2.27 9.51a.228.228 0 0 0-.341.197v1.498c0 .162.087.313.227.394l7.328 4.23a.228.228 0 0 0 .341-.197v-1.497a.455.455 0 0 0-.227-.394z"/><pattern id="SVGID_1_" patternTransform="translate(-7776.486 -7663.517) scale(.02845)" xlink:href="#Unnamed_Pattern_12"/><path d="M2.654 10.575c.139.08.25.275.25.435s-.113.224-.252.144a.553.553 0 0 1-.25-.435c0-.16.113-.224.252-.143z" style="fill:url(#SVGID_1_)"/><pattern id="SVGID_2_" patternTransform="translate(-7776.486 -7663.517) scale(.02845)" xlink:href="#Unnamed_Pattern_12"/><path d="M3.464 11.043c.139.08.251.275.25.434 0 .16-.113.224-.252.144-.139-.08-.251-.274-.25-.434s.113-.224.252-.144z" style="fill:url(#SVGID_2_)"/><pattern id="SVGID_3_" patternTransform="translate(-7776.486 -7663.517) scale(.02845)" xlink:href="#Unnamed_Pattern_12"/><path d="M4.274 11.511c.139.08.251.274.25.434 0 .16-.113.224-.251.144a.553.553 0 0 1-.251-.434c0-.16.113-.224.252-.144z" style="fill:url(#SVGID_3_)"/><pattern id="SVGID_4_" patternTransform="translate(-7775.03 -7651.364) scale(.02845)" xlink:href="#Unnamed_Pattern_12"/><path style="fill:url(#SVGID_4_)" d="M9.093 14.175 7.214 13.09v.712l1.88 1.085z"/><path class="st10" d="M12.586 14.117a.772.772 0 0 0-.35.607l.006 1.812c.001.223.159.313.353.2a.772.772 0 0 0 .35-.606l-.007-1.812c0-.223-.158-.313-.352-.2z"/><path class="st8" d="m12.78 16.043-.007-1.812a.312.312 0 0 0-.04-.162c.121-.005.205.087.205.249l.007 1.812a.772.772 0 0 1-.35.607c-.136.079-.254.057-.313-.04a.328.328 0 0 0 .148-.047.772.772 0 0 0 .35-.607z"/><path class="st10" d="M18.67 10.582a.772.772 0 0 0-.35.607L18.325 13c0 .223.159.313.353.2s.35-.383.35-.606l-.007-1.812c0-.223-.158-.313-.353-.201z"/><path class="st8" d="m18.864 12.508-.007-1.812a.312.312 0 0 0-.04-.162c.12-.005.205.086.205.249l.007 1.812a.772.772 0 0 1-.35.607c-.136.078-.255.057-.314-.04a.328.328 0 0 0 .149-.047.772.772 0 0 0 .35-.607z"/><path class="st10" d="M17.149 11.466a.772.772 0 0 0-.35.606l.006 1.812c0 .223.159.313.353.201a.772.772 0 0 0 .35-.607l-.007-1.811c0-.223-.158-.313-.352-.201z"/><path class="st8" d="m17.343 13.392-.007-1.812a.312.312 0 0 0-.04-.162c.121-.006.205.086.205.249l.007 1.811a.772.772 0 0 1-.35.607c-.136.079-.255.058-.313-.039a.328.328 0 0 0 .148-.048.772.772 0 0 0 .35-.606z"/><path class="st10" d="M15.628 12.35a.772.772 0 0 0-.35.606l.006 1.812c0 .223.159.313.353.201a.772.772 0 0 0 .35-.607l-.007-1.812c0-.223-.158-.313-.352-.2z"/><path class="st8" d="m15.822 14.275-.007-1.811a.312.312 0 0 0-.04-.162c.121-.006.205.086.205.248l.007 1.812a.772.772 0 0 1-.35.607c-.136.079-.255.058-.313-.039a.328.328 0 0 0 .148-.048.772.772 0 0 0 .35-.607z"/><path class="st10" d="M14.107 13.233a.772.772 0 0 0-.35.607l.006 1.812c.001.223.159.313.353.201a.772.772 0 0 0 .35-.607l-.007-1.812c0-.223-.158-.313-.352-.2z"/><path class="st8" d="m14.301 15.16-.007-1.813a.312.312 0 0 0-.04-.162c.121-.005.205.087.205.25l.007 1.811a.772.772 0 0 1-.35.607c-.136.079-.255.058-.313-.039a.328.328 0 0 0 .148-.048.772.772 0 0 0 .35-.607z"/><path class="st4" d="m9.599 17.657-7.328-4.23a.228.228 0 0 0-.341.197v1.497c0 .163.087.313.227.394l7.328 4.23a.228.228 0 0 0 .341-.196V18.05a.455.455 0 0 0-.227-.394z"/><pattern id="SVGID_5_" patternTransform="translate(-7776.486 -7659.6) scale(.02845)" xlink:href="#Unnamed_Pattern_12"/><path d="M2.654 14.492c.139.08.25.274.25.434s-.113.224-.252.144a.553.553 0 0 1-.25-.434c0-.16.113-.224.252-.144z" style="fill:url(#SVGID_5_)"/><pattern id="SVGID_6_" patternTransform="translate(-7776.486 -7659.6) scale(.02845)" xlink:href="#Unnamed_Pattern_12"/><path d="M3.464 14.96c.139.08.251.274.25.434 0 .16-.113.224-.252.144-.139-.08-.251-.275-.25-.435s.113-.224.252-.143z" style="fill:url(#SVGID_6_)"/><pattern id="SVGID_7_" patternTransform="translate(-7776.486 -7659.6) scale(.02845)" xlink:href="#Unnamed_Pattern_12"/><path d="M4.274 15.428c.139.08.251.274.25.434 0 .16-.113.224-.251.144a.553.553 0 0 1-.251-.435c0-.16.113-.224.252-.143z" style="fill:url(#SVGID_7_)"/><pattern id="SVGID_8_" patternTransform="translate(-7775.03 -7647.447) scale(.02845)" xlink:href="#Unnamed_Pattern_12"/><path style="fill:url(#SVGID_8_)" d="m9.093 18.092-1.879-1.085v.711l1.88 1.085z"/><path class="st10" d="M12.586 18.033a.772.772 0 0 0-.35.607l.006 1.812c.001.223.159.313.353.201a.772.772 0 0 0 .35-.607l-.007-1.812c0-.223-.158-.313-.352-.2z"/><path class="st8" d="m12.78 19.96-.007-1.812a.312.312 0 0 0-.04-.162c.121-.006.205.086.205.248l.007 1.812a.772.772 0 0 1-.35.607c-.136.079-.254.058-.313-.039a.328.328 0 0 0 .148-.048.772.772 0 0 0 .35-.606z"/><path class="st10" d="M18.67 14.498a.772.772 0 0 0-.35.607l.006 1.812c0 .223.159.313.353.2s.35-.383.35-.606l-.007-1.812c0-.223-.158-.313-.353-.2z"/><path class="st8" d="m18.864 16.424-.007-1.812a.312.312 0 0 0-.04-.162c.12-.005.205.087.205.25l.007 1.811a.772.772 0 0 1-.35.607c-.136.079-.255.058-.314-.04a.328.328 0 0 0 .149-.047.772.772 0 0 0 .35-.607z"/><path class="st10" d="M17.149 15.382a.772.772 0 0 0-.35.607l.006 1.812c0 .223.159.313.353.2a.772.772 0 0 0 .35-.606l-.007-1.812c0-.223-.158-.313-.352-.201z"/><path class="st8" d="m17.343 17.308-.007-1.812a.312.312 0 0 0-.04-.162c.121-.005.205.087.205.249l.007 1.812a.772.772 0 0 1-.35.607c-.136.078-.255.057-.313-.04a.328.328 0 0 0 .148-.047.772.772 0 0 0 .35-.607z"/><path class="st10" d="M15.628 16.266a.772.772 0 0 0-.35.607l.006 1.812c0 .223.159.313.353.2a.772.772 0 0 0 .35-.606l-.007-1.812c0-.223-.158-.313-.352-.201z"/><path class="st8" d="m15.822 18.192-.007-1.812a.312.312 0 0 0-.04-.162c.121-.005.205.086.205.249l.007 1.812a.772.772 0 0 1-.35.607c-.136.078-.255.057-.313-.04a.328.328 0 0 0 .148-.047.772.772 0 0 0 .35-.607z"/><path class="st10" d="M14.107 17.15a.772.772 0 0 0-.35.606l.006 1.812c.001.223.159.313.353.201a.772.772 0 0 0 .35-.606l-.007-1.812c0-.223-.158-.313-.352-.201z"/><path class="st8" d="m14.301 19.076-.007-1.812a.312.312 0 0 0-.04-.162c.121-.005.205.086.205.249l.007 1.812a.772.772 0 0 1-.35.606c-.136.08-.255.058-.313-.039a.328.328 0 0 0 .148-.047.772.772 0 0 0 .35-.607z"/><path class="st4" d="m9.599 21.573-7.328-4.23a.228.228 0 0 0-.341.197v1.498c0 .162.087.312.227.394l7.328 4.23a.228.228 0 0 0 .341-.197v-1.497a.455.455 0 0 0-.227-.395z"/><pattern id="SVGID_9_" patternTransform="translate(-7776.486 -7655.684) scale(.02845)" xlink:href="#Unnamed_Pattern_12"/><path d="M2.654 18.408c.139.08.25.275.25.434 0 .16-.113.225-.252.144a.553.553 0 0 1-.25-.434c0-.16.113-.224.252-.144z" style="fill:url(#SVGID_9_)"/><pattern id="SVGID_10_" patternTransform="translate(-7776.486 -7655.684) scale(.02845)" xlink:href="#Unnamed_Pattern_12"/><path d="M3.464 18.876c.139.08.251.274.25.434s-.113.224-.252.144a.553.553 0 0 1-.25-.434c0-.16.113-.224.252-.144z" style="fill:url(#SVGID_10_)"/><pattern id="SVGID_11_" patternTransform="translate(-7776.486 -7655.684) scale(.02845)" xlink:href="#Unnamed_Pattern_12"/><path d="M4.274 19.344c.139.08.251.274.25.434 0 .16-.113.224-.251.144a.553.553 0 0 1-.251-.434c0-.16.113-.224.252-.144z" style="fill:url(#SVGID_11_)"/><pattern id="SVGID_12_" patternTransform="translate(-7775.03 -7643.531) scale(.02845)" xlink:href="#Unnamed_Pattern_12"/><path style="fill:url(#SVGID_12_)" d="m9.093 22.008-1.879-1.085v.712l1.88 1.085z"/><path class="st10" d="M12.586 21.95a.772.772 0 0 0-.35.607l.006 1.812c.001.223.159.313.353.2a.772.772 0 0 0 .35-.606l-.007-1.812c0-.223-.158-.313-.352-.201z"/><path class="st8" d="m12.78 23.876-.007-1.812a.312.312 0 0 0-.04-.162c.121-.005.205.087.205.249l.007 1.812a.772.772 0 0 1-.35.607c-.136.078-.254.057-.313-.04a.328.328 0 0 0 .148-.047.772.772 0 0 0 .35-.607z"/><path class="st10" d="M18.67 18.415a.772.772 0 0 0-.35.606l.006 1.812c0 .223.159.313.353.201a.772.772 0 0 0 .35-.607l-.007-1.811c0-.224-.158-.314-.353-.201z"/><path class="st8" d="m18.864 20.34-.007-1.811a.312.312 0 0 0-.04-.162c.12-.006.205.086.205.248l.007 1.812a.772.772 0 0 1-.35.607c-.136.079-.255.058-.314-.039a.328.328 0 0 0 .149-.048.772.772 0 0 0 .35-.606z"/><path class="st10" d="M17.149 19.298a.772.772 0 0 0-.35.607l.006 1.812c0 .223.159.313.353.201a.772.772 0 0 0 .35-.607l-.007-1.812c0-.223-.158-.313-.352-.2z"/><path class="st8" d="m17.343 21.224-.007-1.812a.312.312 0 0 0-.04-.162c.121-.005.205.087.205.25l.007 1.811a.772.772 0 0 1-.35.607c-.136.079-.255.058-.313-.039a.328.328 0 0 0 .148-.048.772.772 0 0 0 .35-.607z"/><path class="st10" d="M15.628 20.182a.772.772 0 0 0-.35.607l.006 1.812c0 .223.159.313.353.201s.351-.384.35-.607l-.007-1.812c0-.223-.158-.313-.352-.2z"/><path class="st8" d="m15.822 22.108-.007-1.812a.312.312 0 0 0-.04-.162c.121-.005.205.087.205.25l.007 1.811a.772.772 0 0 1-.35.607c-.136.079-.255.058-.313-.039a.328.328 0 0 0 .148-.048.772.772 0 0 0 .35-.607z"/><path class="st10" d="M14.107 21.066a.772.772 0 0 0-.35.607l.006 1.812c.001.223.159.313.353.2a.772.772 0 0 0 .35-.606l-.007-1.812c0-.223-.158-.313-.352-.201z"/><path class="st8" d="m14.301 22.992-.007-1.812a.312.312 0 0 0-.04-.162c.121-.005.205.087.205.249l.007 1.812a.772.772 0 0 1-.35.607c-.136.078-.255.057-.313-.04a.328.328 0 0 0 .148-.047.772.772 0 0 0 .35-.607z"/><path class="st4" d="M9.599 25.49 2.27 21.26a.228.228 0 0 0-.341.196v1.498c0 .163.087.313.227.394l7.328 4.23a.228.228 0 0 0 .341-.197v-1.497a.455.455 0 0 0-.227-.394z"/><pattern id="SVGID_13_" patternTransform="translate(-7776.486 -7651.768) scale(.02845)" xlink:href="#Unnamed_Pattern_12"/><path d="M2.654 22.325c.139.08.25.274.25.434s-.113.224-.252.144a.553.553 0 0 1-.25-.435c0-.16.113-.224.252-.143z" style="fill:url(#SVGID_13_)"/><pattern id="SVGID_14_" patternTransform="translate(-7776.486 -7651.768) scale(.02845)" xlink:href="#Unnamed_Pattern_12"/><path d="M3.464 22.792c.139.08.251.275.25.435 0 .16-.113.224-.252.144-.139-.08-.251-.275-.25-.435s.113-.224.252-.144z" style="fill:url(#SVGID_14_)"/><pattern id="SVGID_15_" patternTransform="translate(-7776.486 -7651.768) scale(.02845)" xlink:href="#Unnamed_Pattern_12"/><path d="M4.274 23.26c.139.08.251.275.25.434 0 .16-.113.224-.251.144a.553.553 0 0 1-.251-.434c0-.16.113-.224.252-.144z" style="fill:url(#SVGID_15_)"/><pattern id="SVGID_16_" patternTransform="translate(-7775.03 -7639.615) scale(.02845)" xlink:href="#Unnamed_Pattern_12"/><path style="fill:url(#SVGID_16_)" d="M9.093 25.924 7.214 24.84v.712l1.88 1.085z"/><path class="st10" d="M12.586 25.866a.772.772 0 0 0-.35.607l.006 1.812c.001.223.159.313.353.201a.772.772 0 0 0 .35-.607l-.007-1.812c0-.223-.158-.313-.352-.2z"/><path class="st8" d="m12.78 27.792-.007-1.812a.312.312 0 0 0-.04-.162c.121-.005.205.087.205.25l.007 1.811a.772.772 0 0 1-.35.607c-.136.079-.254.058-.313-.039a.328.328 0 0 0 .148-.048.772.772 0 0 0 .35-.607z"/><path class="st10" d="M18.67 22.33a.772.772 0 0 0-.35.608l.006 1.812c0 .223.159.313.353.2s.35-.383.35-.606l-.007-1.812c0-.223-.158-.313-.353-.201z"/><path class="st8" d="m18.864 24.257-.007-1.812a.312.312 0 0 0-.04-.162c.12-.005.205.087.205.249l.007 1.812a.772.772 0 0 1-.35.607c-.136.078-.255.057-.314-.04a.328.328 0 0 0 .149-.047.772.772 0 0 0 .35-.607z"/><path class="st10" d="M17.149 23.215a.772.772 0 0 0-.35.607l.006 1.812c0 .223.159.313.353.2s.35-.383.35-.606l-.007-1.812c0-.223-.158-.313-.352-.201z"/><path class="st8" d="m17.343 25.14-.007-1.811a.312.312 0 0 0-.04-.162c.121-.005.205.086.205.249l.007 1.812a.772.772 0 0 1-.35.607c-.136.078-.255.057-.313-.04a.328.328 0 0 0 .148-.047.772.772 0 0 0 .35-.607z"/><path class="st10" d="M15.628 24.099a.772.772 0 0 0-.35.606l.006 1.812c0 .223.159.313.353.201a.772.772 0 0 0 .35-.606L15.98 24.3c0-.223-.158-.313-.352-.201z"/><path class="st8" d="m15.822 26.025-.007-1.812a.312.312 0 0 0-.04-.162c.121-.005.205.086.205.249l.007 1.811a.772.772 0 0 1-.35.607c-.136.079-.255.058-.313-.039a.328.328 0 0 0 .148-.047.772.772 0 0 0 .35-.607z"/><path class="st10" d="M14.107 24.982a.772.772 0 0 0-.35.607l.006 1.812c.001.223.159.313.353.201a.772.772 0 0 0 .35-.607l-.007-1.812c0-.223-.158-.313-.352-.2z"/><path class="st8" d="m14.301 26.908-.007-1.811a.312.312 0 0 0-.04-.162c.121-.006.205.086.205.248l.007 1.812a.772.772 0 0 1-.35.607c-.136.079-.255.058-.313-.039a.328.328 0 0 0 .148-.048.772.772 0 0 0 .35-.607z"/></svg>